<?xml version="1.0" standalone="no"?>
<!DOCTYPE svg PUBLIC "-//W3C//DTD SVG 1.1//EN" "http://www.w3.org/Graphics/SVG/1.1/DTD/svg11.dtd" >
<svg xmlns="http://www.w3.org/2000/svg">
<defs>
  <font id="Nucleo" horiz-adv-x="256">
    <font-face font-family="Nucleo"
      units-per-em="256" ascent="256"
      descent="0" />
    <missing-glyph horiz-adv-x="0" />
    <glyph glyph-name="temple"
      unicode="&#xEA02;"
      horiz-adv-x="256" d="M65.254 215.191L4.008 182.5L4.004 165.25L4 148L128 148L252 148L251.996 165.25L251.992 182.5L190.493 215.25C156.668 233.263 128.432 247.973 127.747 247.941C127.061 247.908 98.939 233.171 65.254 215.191M186.448 208.298L244 177.597L244 166.798L244 156L128 156L12 156L12 166.799L12 177.597L69.25 208.228C100.737 225.075 127.039 238.89 127.698 238.929C128.357 238.968 154.794 225.184 186.448 208.298M119 209.752C116.525 208.429 113.15 205.428 111.5 203.083C108.874 199.352 108.5 197.968 108.504 191.991C108.507 186.021 108.885 184.626 111.504 180.907C122.516 165.272 146.038 171.573 147.667 190.595C148.091 195.536 147.779 197.235 145.76 201C140.464 210.874 128.45 214.803 119 209.752M136.407 200.055C139.049 197.413 139.5 196.224 139.5 191.904C139.5 187.341 139.135 186.512 135.765 183.423C132.804 180.71 131.194 180 128 180C124.806 180 123.196 180.71 120.235 183.423C116.877 186.501 116.5 187.35 116.5 191.843C116.5 197.085 119.014 201.127 123.5 203.097C127.239 204.739 133.105 203.357 136.407 200.055M28 88L28 44L16 44L4 44L4 24L4 4L128 4L252 4L252 24L252 44L240 44L228 44L228 88L228 132L224 132L220 132L220 88L220 44L192 44L164 44L164 88L164 132L160 132L156 132L156 88L156 44L128 44L100 44L100 88L100 132L96 132L92 132L92 88L92 44L64 44L36 44L36 88L36 132L32 132L28 132L28 88M244 24L244 12L128 12L12 12L12 24L12 36L128 36L244 36L244 24" />
    <glyph glyph-name="temple-2"
      unicode="&#xEA03;"
      horiz-adv-x="256" d="M63.5 211.634L0.5 177.27L0.233 152.635L-0.035 128L128 128L256.0350000000001 128L255.767 152.647L255.5 177.294L192.5 211.626C157.85 230.509 128.825 245.967 128 245.978C127.175 245.988 98.15 230.533 63.5 211.634M181.679 193.176L234.5 164.351L234.5 156.926L234.5 149.5L127.708 149.245L20.916 148.991L21.208 156.675L21.5 164.36L74 193.103C102.875 208.912 127.031 221.881 127.679 221.923C128.327 221.965 152.627 209.029 181.679 193.176M123 190.727C119.573 189.023 116.658 182.833 117.493 179.031C118.443 174.706 123.291 171 128 171C130.655 171 132.777 171.783 134.85 173.527C144.279 181.461 134.095 196.244 123 190.727M21 74.5L21 32L32 32L43 32L43 74.5L43 117L32 117L21 117L21 74.5M85 74.5L85 32L96 32L107 32L107 74.5L107 117L96 117L85 117L85 74.5M149 74.5L149 32L160 32L171 32L171 74.5L171 117L160 117L149 117L149 74.5M213 74.5L213 32L224 32L235 32L235 74.5L235 117L224 117L213 117L213 74.5M0 10.5L0 0L128 0L256 0L256 10.5L256 21L128 21L0 21L0 10.5" />
    <glyph glyph-name="temple-3"
      unicode="&#xEA04;"
      horiz-adv-x="256" d="M62.75 222.302L0 188.752L0 166.376L0 144L128 144L256 144L256 166.378L256 188.756L193.021 222.378C158.383 240.87 129.02 255.967 127.771 255.927C126.522 255.886 97.263 240.755 62.75 222.302M184.436 209L239.93 179.5L239.965 169.75L240 160L128 160L16 160L16.036 169.75L16.073 179.5L71.786 209.188C102.429 225.517 127.824 238.792 128.221 238.688C128.617 238.585 153.914 225.225 184.436 209M121.994 215.124C103.681 209.128 98.06 188.181 111.285 175.216C121.004 165.687 134.996 165.687 144.715 175.216C156.442 186.713 153.418 205.55 138.622 213.173C134.313 215.393 125.849 216.386 121.994 215.124M131.385 198.87C134.331 197.528 136.45 192.994 135.513 190.04C135.145 188.881 133.894 187.048 132.733 185.966C126.995 180.62 117.918 187.56 120.98 194.953C122.786 199.312 126.963 200.885 131.385 198.87M24 96L24 56L32 56L40 56L40 96L40 136L32 136L24 136L24 96M88 96L88 56L96 56L104 56L104 96L104 136L96 136L88 136L88 96M152 96L152 56L160 56L168 56L168 96L168 136L160 136L152 136L152 96M216 96L216 56L224 56L232 56L232 96L232 136L224 136L216 136L216 96M0 24L0 0L128 0L256 0L256 24L256 48L128 48L0 48L0 24M240 24L240 16L128 16L16 16L16 24L16 32L128 32L240 32L240 24" />
    <glyph glyph-name="temple-5"
      unicode="&#xEA05;"
      horiz-adv-x="256" d="M66.5 212.665L5.5 179.359L5.229 159.179L4.959 139L128 139L251.041 139L250.771 159.16L250.5 179.32L190 212.273C156.725 230.397 129.05 245.393 128.5 245.598C127.95 245.803 100.05 230.983 66.5 212.665M184.335 203.129L240 172.758L240 160.879L240 149L128 149L16 149L16 160.89L16 172.78L71.75 203.279C102.413 220.054 127.763 233.716 128.085 233.639C128.407 233.563 153.72 219.833 184.335 203.129M119.5 206.104C111.796 202.537 107 195.016 107 186.5C107 174.538 115.976 165.609 128 165.609C140.13 165.609 149.034 174.568 148.978 186.718C148.908 202.003 133.098 212.4 119.5 206.104M134.462 194.75C139.249 190.564 139.469 182.544 134.91 178.419C132.005 175.79 124.007 175.779 121.111 178.4C116.24 182.808 116.762 191.619 122.117 195.369C125.516 197.75 131.366 197.457 134.462 194.75M27 85.5L27 48L16 48L5 48L5 26.496L5 4.992L127.75 5.246L250.5 5.5L250.77 26.75L251.04 48L240.02 48L229 48L229 85.5L229 123L224 123L219 123L219 85.5L219 48L192 48L165 48L165 85.5L165 123L160 123L155 123L155 85.5L155 48L128 48L101 48L101 85.5L101 123L96 123L91 123L91 85.5L91 48L64 48L37 48L37 85.5L37 123L32 123L27 123L27 85.5M240 26.5L240 16L128 16L16 16L16 26.5L16 37L128 37L240 37L240 26.5" />
    <glyph glyph-name="temple-4"
      unicode="&#xEA06;"
      horiz-adv-x="256" d="M65.254 215.191L4.008 182.5L4.004 165.25L4 148L128 148L252 148L251.996 165.25L251.992 182.5L190.493 215.25C156.668 233.263 128.432 247.973 127.747 247.941C127.061 247.908 98.939 233.171 65.254 215.191M186.448 208.298L244 177.597L244 166.798L244 156L128 156L12 156L12 166.799L12 177.597L69.25 208.228C100.737 225.075 127.039 238.89 127.698 238.929C128.357 238.968 154.794 225.184 186.448 208.298M119 209.752C116.525 208.429 113.15 205.428 111.5 203.083C108.874 199.352 108.5 197.968 108.504 191.991C108.507 186.021 108.885 184.626 111.504 180.907C122.516 165.272 146.038 171.573 147.667 190.595C148.091 195.536 147.779 197.235 145.76 201C140.464 210.874 128.45 214.803 119 209.752M136.407 200.055C139.049 197.413 139.5 196.224 139.5 191.904C139.5 187.341 139.135 186.512 135.765 183.423C132.804 180.71 131.194 180 128 180C124.806 180 123.196 180.71 120.235 183.423C116.877 186.501 116.5 187.35 116.5 191.843C116.5 197.085 119.014 201.127 123.5 203.097C127.239 204.739 133.105 203.357 136.407 200.055M28 88L28 44L16 44L4 44L4 24L4 4L128 4L252 4L252 24L252 44L240 44L228 44L228 88L228 132L224 132L220 132L220 88L220 44L192 44L164 44L164 88L164 132L160 132L156 132L156 88L156 44L128 44L100 44L100 88L100 132L96 132L92 132L92 88L92 44L64 44L36 44L36 88L36 132L32 132L28 132L28 88M244 24L244 12L128 12L12 12L12 24L12 36L128 36L244 36L244 24" />
    <glyph glyph-name="presentation-5"
      unicode="&#xEA07;"
      horiz-adv-x="256" d="M40.734 254.97C31.404 252.627 23.095 245.89 18.812 237.193C16.946 233.404 16.5 230.862 16.5 224C16.5 213.879 18.692 208.466 25.579 201.579C36.752 190.406 53.733 188.939 66.421 198.051C87.042 212.86 83.331 243.659 59.744 253.47C54.969 255.456 45.609 256.195 40.734 254.97M146.455 253.545C144.09 251.181 144 250.594 144 237.545L144 224L130.455 224C117.406 224 116.819 223.91 114.455 221.545C111.266 218.357 111.265 214.085 114.452 210.646L116.905 208L178.452 208L240 208L240 144L240 80L178.455 80L116.909 80L114.455 77.545C111.266 74.357 111.265 70.085 114.452 66.646L116.905 64L139.935 64L162.965 64L178.422 33.188C194.271 1.594 195.351 0 200.911 0C203.507 0 208 4.845 208 7.644C208 8.947 201.923 22.161 194.496 37.007L180.993 64L216.044 64L251.095 64L253.548 66.646L256 69.292L256 144.191L256 219.091L253.545 221.545L251.091 224L205.545 224L160 224L160 237.545C160 250.594 159.91 251.181 157.545 253.545C154.298 256.793 149.702 256.793 146.455 253.545M54.655 238.359C64.696 233.595 66.921 221.206 59.194 213.084C52.718 206.276 43.282 206.276 36.806 213.084C24.598 225.916 38.724 245.919 54.655 238.359M16.008 174.684C10.952 173.074 2.438 164.401 1.102 159.5C0.36 156.778 0.009 131.502 0.006 80.396L0 5.292L2.452 2.646C5.744 -0.906 10.256 -0.906 13.548 2.646L16 5.292L16 80.191L16 155.091L18.455 157.545C20.909 160 20.912 160 42.455 160L64 160L64 82.646L64 5.292L66.452 2.646C68.086 0.883 69.937 0 72 0C74.063 0 75.914 0.883 77.548 2.646L80 5.292L80 82.646L80 160L117.548 160L155.095 160L157.548 162.646C160.735 166.085 160.734 170.357 157.545 173.545L155.091 176L87.295 175.898C40.571 175.828 18.415 175.45 16.008 174.684" />
    <glyph glyph-name="presentation-1"
      unicode="&#xEA08;"
      horiz-adv-x="256" d="M33.792 254.66C25.47 252.31 18.31 246.235 13.705 237.616C11.882 234.205 11.506 231.873 11.506 224C11.506 216.015 11.871 213.815 13.796 210.205C19.575 199.369 29.045 193.074 40.789 192.265C49.656 191.653 57.515 194.531 64.294 200.872C70.036 206.243 72.328 210.366 73.955 218.25C75.297 224.754 74.131 232.853 70.967 239C68.386 244.014 61.272 250.564 55.776 252.987C49.754 255.643 39.924 256.391 33.792 254.66M46.401 233.606C50.743 231.792 53 228.456 53 223.854C53 219.339 49.238 214.431 45.077 213.517C38.919 212.164 31.993 217.824 32.004 224.2C32.01 228.005 35.607 232.832 39.212 233.871C41.02 234.393 42.627 234.86 42.782 234.91C42.937 234.959 44.566 234.373 46.401 233.606M96 224L96 213L165.5 213L235 213L235 154.5L235 96L171 96L107 96L107 85.513L107 75.027L140.711 74.763L174.421 74.5L188.642 41.5C196.463 23.35 203.037 8.067 203.252 7.538C203.538 6.832 220.372 12.897 222.823 14.589C223 14.712 217.66 27.567 210.956 43.156C204.253 58.745 198.542 72.287 198.267 73.25C197.799 74.888 199.629 75 226.883 75L256 75L256 155L256 235L176 235L96 235L96 224M21.882 179.619C13.281 176.546 6.419 170.291 2.606 162.051C0.529 157.563 0.496 156.412 0.221 78.75L-0.058 0L10.471 0L21 0L21 75.032C21 157.244 20.865 155.327 26.872 158.434C29.274 159.676 33.43 160 46.95 160L64 160L64 80L64 0L74.5 0L85 0L85 80L85 160L128 160L171 160L171 170.5L171 181L98.25 180.956C41.388 180.922 24.71 180.63 21.882 179.619" />
    <glyph glyph-name="presentation-2"
      unicode="&#xEA09;"
      horiz-adv-x="256" d="M48.734 254.97C39.404 252.627 31.095 245.89 26.812 237.193C24.946 233.404 24.5 230.862 24.5 224C24.5 213.879 26.692 208.466 33.579 201.579C44.752 190.406 61.733 188.939 74.421 198.051C95.042 212.86 91.331 243.659 67.744 253.47C62.969 255.456 53.609 256.195 48.734 254.97M62.655 238.359C72.696 233.595 74.921 221.206 67.194 213.084C60.718 206.276 51.282 206.276 44.806 213.084C32.598 225.916 46.724 245.919 62.655 238.359M104 224L104 216L164 216L224 216L224 152L224 88L168 88L112 88L112 80L112 72L141.75 71.972L171.5 71.944L189.954 38.405C200.104 19.959 208.654 4.714 208.955 4.528C209.257 4.341 212.545 5.971 216.262 8.149L223.021 12.109L220.598 16.304C215.874 24.486 190 71.274 190 71.634C190 71.835 201.25 72 215 72L240 72L240 152L240 232L172 232L104 232L104 224M32.008 174.684C26.952 173.074 18.438 164.401 17.102 159.5C16.358 156.772 16.009 130.767 16.006 77.75L16 0L24 0L32 0L32 77.545L32 155.091L34.455 157.545C36.909 160 36.912 160 58.455 160L80 160L80 80L80 0L88 0L96 0L96 80L96 160L136 160L176 160L176 168L176 176L105.75 175.898C57.224 175.827 34.42 175.452 32.008 174.684" />
    <glyph glyph-name="presentation-3"
      unicode="&#xEA0A;"
      horiz-adv-x="256" d="M47.903 249.911C35.815 248.067 25.759 238.744 22.473 226.333C18.488 211.281 27.247 194.432 41.92 188.921C49.465 186.087 60.479 186.521 67.183 189.916C77.804 195.294 84.293 205.254 84.831 217C85.286 226.925 82.732 233.91 76.234 240.516C68.526 248.35 58.807 251.573 47.903 249.911M133.667 250.333C133.3 249.967 133 245.017 133 239.333L133 229L120 229L107 229L107 224L107 219L120.75 218.913C128.313 218.865 157 218.752 184.5 218.663L234.5 218.5L234.757 154.75L235.015 91L171.007 91L107 91L107 85.5L107 80L139.764 80L172.527 80L187.367 45.25C195.528 26.137 202.562 10.12 202.997 9.656C203.432 9.192 205.832 9.717 208.331 10.822L212.874 12.832L198.577 46.166L184.28 79.5L214.64 79.764L245 80.029L245 154.514L245 229L194.5 229L144 229L144 240L144 251L139.167 251C136.508 251 134.033 250.7 133.667 250.333M61.5 238.121C69.728 234.347 74.143 227.533 74.142 218.611C74.142 212.074 72.962 209.071 68.421 204.044C58.024 192.536 39.116 196.656 33.378 211.68C30.074 220.332 33.833 231.345 41.812 236.381C48.236 240.436 55.126 241.045 61.5 238.121M30.939 169.639C23.787 167.704 19.82 164.871 15.5 158.61L11.5 152.814L11.225 78.907L10.95 5L15.95 5L20.949 5L21.224 76.75L21.5 148.5L23.701 152.038C24.911 153.984 27.672 156.572 29.837 157.788C33.544 159.872 34.967 160 54.386 160L75 160L75 82.5L75 5L80 5L85 5L85 82.5L85 160L128.052 160L171.105 160L170.802 165.25L170.5 170.5L103 170.686C52.118 170.826 34.377 170.568 30.939 169.639" />
    <glyph glyph-name="presentation-4"
      unicode="&#xEA0B;"
      horiz-adv-x="256" d="M49.5 251.12C36.867 247.785 28 236.6 28 224C28 208.942 40.942 196 56 196C71.058 196 84 208.942 84 224C84 238.362 72.756 250.359 58.254 251.471C55.089 251.714 51.15 251.556 49.5 251.12M136 238L136 228L118 228L100 228L100 224L100 220L166 220L232 220L232 148L232 76L170 76L108 76L108 72L108 68L142.937 68L177.874 68L197.164 37.124L216.453 6.249L219.727 7.81C221.527 8.668 223 9.648 223 9.986C223 10.325 214.925 23.517 205.055 39.301L187.11 68L213.555 68L240 68L240 148L240 228L192 228L144 228L144 238L144 248L140 248L136 248L136 238M66.531 240.673C68.542 239.306 71.379 236.458 72.835 234.344C75.036 231.147 75.48 229.406 75.471 224C75.461 218.514 75.013 216.837 72.596 213.249C68.285 206.849 63.83 204.5 56 204.5C48.17 204.5 43.715 206.849 39.404 213.249C36.987 216.837 36.539 218.514 36.529 224C36.52 229.406 36.964 231.147 39.165 234.344C41.873 238.276 46.999 242.329 50.525 243.325C54.741 244.515 62.854 243.171 66.531 240.673M36.139 182.853C31.248 181.445 25.712 177.686 22.102 173.32C15.934 165.862 16 166.777 16 88.53L16 17.424L18.25 12.962C19.894 9.702 21.702 7.894 24.962 6.25C32.619 2.389 39.539 3.908 44.618 10.565L47.5 14.341L47.787 49.171L48.074 84L54.037 84L60 84L60 50.712C60 18.18 60.051 17.322 62.25 12.962C63.894 9.702 65.702 7.894 68.962 6.25C76.62 2.388 83.539 3.908 88.618 10.566L91.5 14.343L91.77 83.172C91.919 121.027 92.144 152.018 92.27 152.039C92.397 152.061 109.07 152.898 129.322 153.898C170.009 155.908 168.756 155.652 173.75 162.99C177.985 169.212 175.745 177.746 168.759 182.005C165.594 183.935 163.684 183.99 102.5 183.906C65.197 183.855 38.129 183.425 36.139 182.853M166 174C168.494 171.506 168.543 168.892 166.152 165.939C164.346 163.709 163.507 163.616 129.402 161.883C110.206 160.908 92.138 160.085 89.25 160.055L84 160L83.985 89.25C83.974 34.463 83.687 17.94 82.714 16.017C80.078 10.806 71.606 11.179 69.13 16.615C68.356 18.313 68 30.584 68 55.547L68 92L54 92L40 92L39.985 55.25C39.969 15.7 39.807 14.36 34.822 12.606C31.249 11.35 26.484 13.417 25.066 16.84C24.285 18.726 24.04 40.544 24.23 91.169L24.5 162.829L27.5 167.088C29.15 169.43 32.483 172.394 34.907 173.673L39.315 176L101.657 176C162.667 176 164.043 175.957 166 174" />
    <glyph glyph-name="a-time-1"
      unicode="&#xEA0C;"
      horiz-adv-x="256" d="M93.5 254.523C68.951 249.132 49.768 230.324 44.453 206.435C43.127 200.471 42.861 195.423 43.202 182.681C43.598 167.873 43.89 165.771 46.645 157.904C50.312 147.433 55.234 138.51 61.838 130.362L66.812 124.223L60.656 123.048C49.179 120.856 28.535 114.794 23.004 111.991C15.052 107.961 8.319 100.846 4.088 92L0.5 84.5L0.187 52.75L-0.127 21L47.937 21L96 21L96 32L96 43L58.5 43L21 43L21 58.451C21 77.943 21.936 82.51 27.145 88.427C30.807 92.588 32.11 93.277 42.325 96.458C60.982 102.268 78.596 105.344 99.5 106.441C123.564 107.704 132.51 111.31 146.548 125.406C154.079 132.968 156.471 136.194 160.744 144.55C168.617 159.949 170.442 168.105 170.353 187.5C170.287 201.945 170.024 204.285 167.651 211.578C162.368 227.81 150.171 241.803 134.269 249.874C123.689 255.244 105.978 257.264 93.5 254.523M121.784 231.781C133.811 227.342 144.356 215.853 147.605 203.648C149.535 196.401 149.424 175.432 147.415 167.644C143.763 153.489 131.314 136.747 120.51 131.461C105.611 124.172 90.418 128.78 77.829 144.406C68.888 155.505 65.109 165.893 64.304 181.581C63.289 201.381 66.59 211.928 76.952 221.989C89.389 234.065 105.855 237.662 121.784 231.781M178.5 126.567C169.017 124.344 164.29 122.347 156.932 117.455C143.327 108.41 132.741 92.991 129.499 77.5C119.991 32.058 160.058 -8.009 205.5 1.499C234.287 7.523 255.965 34.37 255.965 64C255.965 91.391 237.339 116.834 211.282 125.034C202.535 127.787 186.832 128.521 178.5 126.567M198.855 105.954C213.631 103.556 227.851 91.665 232.284 78C240.427 52.897 224.38 26.116 198.75 22.036C170.247 17.499 146 41.752 150.1 70.699C152.859 90.184 170 105.345 191 106.876C191.825 106.936 195.36 106.521 198.855 105.954M181 74.5L181 53L202.5 53L224 53L224 64L224 75L213.5 75L203 75L203 85.5L203 96L192 96L181 96L181 74.5" />
    <glyph glyph-name="temple-7"
      unicode="&#xEA0D;"
      horiz-adv-x="256" d="M63.5 211.634L0.5 177.27L0.233 152.635L-0.035 128L128 128L256.0350000000001 128L255.767 152.647L255.5 177.294L192.5 211.626C157.85 230.509 128.825 245.967 128 245.978C127.175 245.988 98.15 230.533 63.5 211.634M181.679 193.176L234.5 164.351L234.5 156.926L234.5 149.5L127.708 149.245L20.916 148.991L21.208 156.675L21.5 164.36L74 193.103C102.875 208.912 127.031 221.881 127.679 221.923C128.327 221.965 152.627 209.029 181.679 193.176M123 190.727C119.573 189.023 116.658 182.833 117.493 179.031C118.443 174.706 123.291 171 128 171C130.655 171 132.777 171.783 134.85 173.527C144.279 181.461 134.095 196.244 123 190.727M21 74.5L21 32L32 32L43 32L43 74.5L43 117L32 117L21 117L21 74.5M85 74.5L85 32L96 32L107 32L107 74.5L107 117L96 117L85 117L85 74.5M149 74.5L149 32L160 32L171 32L171 74.5L171 117L160 117L149 117L149 74.5M213 74.5L213 32L224 32L235 32L235 74.5L235 117L224 117L213 117L213 74.5M0 10.5L0 0L128 0L256 0L256 10.5L256 21L128 21L0 21L0 10.5" />
    <glyph glyph-name="book-open-2-3"
      unicode="&#xEA0E;"
      horiz-adv-x="256" d="M0 146.954L0 45.219L7.75 43.126C12.012 41.975 40.811 34.103 71.747 25.633L127.995 10.231L191.723 27.674C226.773 37.268 255.576 45.243 255.73 45.397C255.884 45.55 255.895 91.339 255.755 147.149L255.5 248.621L191.774 231.188L128.048 213.755L64.024 231.222L0 248.689L0 146.954M75.212 206C103.22 198.3 126.975 192 128 192C129.025 192 152.78 198.3 180.788 206C208.795 213.7 232.451 220 233.355 220C234.868 220 235 213.641 235 140.979L235 61.957L232.75 61.008C228.013 59.01 130.736 33 128 33C125.264 33 27.987 59.01 23.25 61.008L21 61.957L21 140.979C21 213.641 21.132 220 22.645 220C23.549 220 47.205 213.7 75.212 206M45.549 190.856C42.744 182.762 40.373 171.8 41.353 171.459C44.841 170.243 101.456 155 102.482 155C103.68 155 109.408 173.926 108.488 174.845C108.144 175.19 61.993 188.05 48.259 191.628C46.842 191.998 45.846 191.714 45.549 190.856M177.65 183.473C161.232 178.886 147.633 174.966 147.429 174.763C147.226 174.559 148.236 170.029 149.676 164.696C151.481 158.008 152.749 155 153.765 155C154.95 155 210.498 170.016 214.635 171.454C216.283 172.027 210.784 191.45 208.916 191.657C208.137 191.743 194.067 188.061 177.65 183.473M43.181 136.75C41.964 131.662 40.975 126.981 40.984 126.347C40.999 125.299 102.67 109.337 103.5 110.166C103.923 110.59 108.969 130.389 108.699 130.567C108.249 130.863 46.958 146 46.208 146C45.76 146 44.398 141.838 43.181 136.75M177.5 138.258C161 134.102 147.411 130.642 147.301 130.569C147.064 130.41 152.05 110.616 152.421 110.245C152.759 109.908 214.37 125.038 214.928 125.595C215.163 125.83 214.294 130.517 212.997 136.011C211.22 143.539 210.253 145.977 209.07 145.907C208.206 145.856 194 142.414 177.5 138.258M45.464 97.75C45.204 97.062 43.916 92.581 42.601 87.79L40.211 79.08L45.356 77.615C64.536 72.152 101.789 62 102.657 62C103.729 62 109.314 81.019 108.486 81.847C107.891 82.443 48.89 98.932 47.219 98.971C46.514 98.987 45.724 98.437 45.464 97.75M177.721 90.593C161.343 86.018 147.744 82.077 147.501 81.834C146.676 81.009 152.286 62 153.354 62C154.874 62 213.28 78.07 214.595 78.851C216.198 79.801 210.931 98.412 208.98 98.695C208.166 98.813 194.1 95.167 177.721 90.593" />
    <glyph glyph-name="book"
      unicode="&#xEA0F;"
      horiz-adv-x="256" d="M49.5 243.499C28.52 240.08 9.934 229.119 3.464 216.35L0.5 210.5L0.23 115.716L-0.04 20.932L10.718 21.216C20.575 21.476 21.506 21.668 21.833 23.5C22.849 29.191 34.416 36.598 47.856 40.165C57.735 42.786 78.006 43.025 89 40.649C102.874 37.65 117 28.729 117 22.965C117 21.131 117.732 21 128 21C138.268 21 139 21.131 139 22.965C139 28.729 153.126 37.65 167 40.649C177.994 43.025 198.265 42.786 208.144 40.165C221.584 36.598 233.151 29.191 234.167 23.5C234.494 21.668 235.425 21.476 245.282 21.216L256.04 20.932L255.77 115.716L255.5 210.5L253.049 215.5C246.343 229.184 225.868 240.984 203.678 243.953C176.688 247.565 148.098 241.88 132.856 229.871C130.852 228.292 128.667 227 128 227C127.333 227 125.148 228.292 123.144 229.871C114.91 236.358 100.73 241.769 86.308 243.925C76.884 245.334 59.53 245.133 49.5 243.499M90.5 221.549C100.134 218.917 109.738 214.032 113.53 209.835L117 205.994L117 129.51L117 53.025L111.389 55.507C86.111 66.686 48.384 66.419 25.808 54.902C23.758 53.856 21.837 53 21.54 53C20.429 53 20.969 202.613 22.092 205.833C24.232 211.973 36.458 218.849 51 222.09C61.353 224.398 81.058 224.128 90.5 221.549M203.111 222.419C218.876 219.429 232.053 212.069 233.965 205.186C235.024 201.373 235.507 53 234.46 53C234.163 53 232.223 53.866 230.149 54.924C217.964 61.14 196.334 64.791 179 63.558C166.157 62.644 157.635 60.773 147.504 56.642L139 53.175L139 129.553L139 205.93L142.16 209.529C152.153 220.911 180.009 226.802 203.111 222.419" />
    <glyph glyph-name="filter-organization-1"
      unicode="&#xEA10;"
      horiz-adv-x="256" d="M21.246 138.75L21.5 21.5L58.75 21.238L96 20.976L96 10.488L96 0L165.5 0L235 0L235 32L235 64L165.5 64L96 64L96 53.5L96 43L69.5 43L43 43L43 75L43 107L69.5 107L96 107L96 95.993L96 84.986L165.25 85.243L234.5 85.5L234.764 117.25L235.028 149L165.514 149L96 149L96 138.5L96 128L69.5 128L43 128L43 160L43 192L69.5 192L96 192L96 181.5L96 171L165.514 171L235.028 171L234.764 202.75L234.5 234.5L165.25 234.757L96 235.014L96 224.007L96 213L69.5 213L43 213L43 234.5L43 256L31.996 256L20.992 256L21.246 138.75M213 202.5L213 192L165.5 192L118 192L118 202.5L118 213L165.5 213L213 213L213 202.5M213 117.5L213 107L165.5 107L118 107L118 117.5L118 128L165.5 128L213 128L213 117.5M213 32L213 21L165.5 21L118 21L118 32L118 43L165.5 43L213 43L213 32" />
    <glyph glyph-name="folder-13"
      unicode="&#xEA11;"
      horiz-adv-x="256" d="M0 141.682C0 25.852 -0.39 32.209 7.293 22.838C9.607 20.016 13.975 16.311 17 14.604L22.5 11.5L128 11.5L233.5 11.5L239 14.604C242.025 16.311 246.393 20.016 248.707 22.838C256.315 32.117 256 27.676 256 125.675L256 212.986L186.75 213.243L117.5 213.5L117.225 229.25L116.949 245L58.475 245L0 245L0 141.682M96 208L96 192L165.5 192L235 192L235 181.5L235 171L128 171L21 171L21 197.5L21 224L58.5 224L96 224L96 208M235 95.468C235 36.742 234.986 36.596 229.128 33.566C226.439 32.176 215.092 32 128 32C40.908 32 29.561 32.176 26.872 33.566C21.014 36.596 21 36.742 21 95.468L21 149L128 149L235 149L235 95.468" />
    <glyph glyph-name="folder-16"
      unicode="&#xEA12;"
      horiz-adv-x="256" d="M21 229.5L21 203L32 203L43 203L43 219L43 235L77.25 234.978L111.5 234.957L122 219L132.5 203.043L183.75 203.022L235 203L235 213.5L235 224L189.658 224L144.315 224L133.654 240L122.993 256L71.997 256L21 256L21 229.5M0.232 102.75L0.5 24.5L3.148 18.852C6.373 11.973 12.616 5.532 18.851 2.649L23.5 0.5L128 0.5L232.5 0.5L237.149 2.649C243.384 5.532 249.627 11.973 252.852 18.852L255.5 24.5L255.774 102.75L256.0470000000001 181L128.006 181L-0.036 181L0.232 102.75M234.771 94.019L234.5 28.038L231.231 24.769L227.962 21.5L129.413 21.236C41.007 20.998 30.518 21.135 27.509 22.563C20.817 25.738 21 23.693 21 95.401L21 160L128.021 160L235.042 160L234.771 94.019" />
    <glyph glyph-name="filter-tool-1"
      unicode="&#xEA13;"
      horiz-adv-x="256" d="M3.561 242.25C4.546 240.738 25.747 208.901 50.676 171.501L96 103.502L96 57.251L96 11L128 11L160 11L160 57.251L160 103.502L205.324 171.501C230.253 208.901 251.454 240.737 252.439 242.25L254.23 245L128 245L1.77 245L3.561 242.25M214 223.496C214 223.219 197.125 197.682 176.5 166.747L139 110.503L139 71.251L139 32L128 32L117 32L117 71.251L117 110.503L79.5 166.747C58.875 197.682 42 223.219 42 223.496C42 223.773 80.7 224 128 224C175.3 224 214 223.773 214 223.496" />
    <glyph glyph-name="log-in-1"
      unicode="&#xEA14;"
      horiz-adv-x="256" d="M96 245.5L96 235L160 235L224 235L224 128L224 21L160 21L96 21L96 10.5L96 0L170.5 0L245 0L245 128L245 256L170.5 256L96 256L96 245.5M109.723 189.225C106.025 185.499 103 182.015 103 181.484C103 180.952 112.333 171.176 123.741 159.759L144.482 139L77.741 139L11 139L11 128L11 117L77.741 117L144.482 117L123.741 96.241C112.333 84.824 103 75.024 103 74.464C103 73.905 106.156 70.315 110.013 66.488L117.025 59.529L151.259 93.763L185.493 127.996L151.502 161.998C132.807 180.699 117.271 196 116.979 196C116.686 196 113.421 192.951 109.723 189.225" />
    <glyph glyph-name="log-out-1"
      unicode="&#xEA15;"
      horiz-adv-x="256" d="M96 245.5L96 235L160 235L224 235L224 128L224 21L160 21L96 21L96 10.5L96 0L170.5 0L245 0L245 128L245 256L170.5 256L96 256L96 245.5M40.498 161.998L6.507 127.996L40.741 93.763L74.975 59.529L81.987 66.488C85.844 70.315 89 73.905 89 74.464C89 75.024 79.667 84.824 68.259 96.241L47.518 117L114.259 117L181 117L181 128L181 139L114.259 139L47.518 139L68.259 159.759C79.667 171.176 89 180.976 89 181.536C89 182.525 75.93 196 74.969 196C74.705 196 59.193 180.699 40.498 161.998" />
    <glyph glyph-name="single-05-1"
      unicode="&#xEA16;"
      horiz-adv-x="256" d="M114.757 255.035C93.878 251.219 75.189 238.1 63.423 219C54.989 205.309 52.457 190.088 53.275 158C53.692 141.659 54.219 135.917 55.871 129.7C58.367 120.305 63.402 110.432 69.459 103.049C71.919 100.051 73.834 97.508 73.716 97.399C73.597 97.289 62.475 90.593 49 82.517C35.525 74.442 22.759 66.185 20.631 64.168C18.504 62.15 15.466 57.8 13.882 54.5L11.002 48.5L11.001 24.25L11 0L128 0L245 0L244.999 24.25L244.998 48.5L242.118 54.5C240.534 57.8 237.496 62.15 235.369 64.168C233.241 66.185 220.475 74.442 207 82.517C193.525 90.593 182.403 97.289 182.284 97.399C182.166 97.508 184.081 100.051 186.541 103.049C192.611 110.447 197.64 120.322 200.113 129.7C202.711 139.549 203.855 173.031 202.131 188.76C199.41 213.59 186.985 232.859 165.205 246.029C155.066 252.159 144.343 255.144 131 255.551C124.675 255.744 117.366 255.511 114.757 255.035M136.923 233.943C156.661 230.74 174.305 214.566 179.547 194.869C181.643 186.996 181.586 143.668 179.469 135.542C174.813 117.668 159.332 102.187 141.458 97.531C133.939 95.573 122.061 95.573 114.542 97.531C96.668 102.187 81.187 117.668 76.531 135.542C74.12 144.799 74.346 187.186 76.855 196.234C82.839 217.812 104.052 234.159 127 234.876C128.925 234.936 133.39 234.516 136.923 233.943M103.5 78.926C119.593 73.196 139.402 73.659 156.259 80.16L164.123 83.193L192.123 66.427C207.522 57.205 220.994 48.551 222.061 47.195C223.732 45.071 224 43.092 224 32.865L224 21L128 21L32 21L32 32.944C32 43.899 32.186 45.102 34.25 47.471C37.327 51.003 91.129 83.165 93 82.591C93.825 82.338 98.55 80.688 103.5 78.926" />
    <glyph glyph-name="a-time-2"
      unicode="&#xEA17;"
      horiz-adv-x="256" d="M98.5 254.567C89.017 252.344 84.29 250.347 76.932 245.455C45.096 224.29 38.823 181.89 62.571 148.388C85.451 116.112 123.018 110.725 150.136 135.832C181.349 164.73 184.661 209.197 157.632 236.478C145.06 249.168 132.206 254.858 114.5 255.571C108.043 255.831 102.374 255.476 98.5 254.567M121.447 238.925C130.818 237.193 137.765 233.339 145.552 225.552C155.48 215.624 160.027 204.958 159.983 191.701C159.914 171.203 146.077 148.484 128.436 139.908C122.057 136.807 120.735 136.534 111.979 136.518C103.144 136.501 101.958 136.746 95.515 139.918C77.841 148.619 64.086 171.232 64.017 191.701C63.973 205.066 68.465 215.629 78.42 225.568C90.643 237.769 104.473 242.063 121.447 238.925M178.5 126.567C169.017 124.344 164.29 122.347 156.932 117.455C143.327 108.41 132.741 92.991 129.499 77.5C119.991 32.058 160.058 -8.009 205.5 1.499C234.287 7.523 255.965 34.37 255.965 64C255.965 91.391 237.339 116.834 211.282 125.034C202.535 127.787 186.832 128.521 178.5 126.567M201.447 110.925C210.818 109.193 217.765 105.339 225.552 97.552C245.081 78.023 245.081 50.026 225.552 30.42C215.727 20.557 205.124 16 192 16C178.876 16 168.273 20.557 158.448 30.42C146.136 42.781 141.623 57.6 145.115 74.201C147.03 83.307 150.842 90.002 158.42 97.568C170.643 109.769 184.473 114.063 201.447 110.925M96.5 103.341C63.994 100.717 44.091 96.854 25.615 89.582C12.084 84.256 8.323 81.177 2.882 70.969C0.553 66.6 0.493 65.846 0.182 37.25L-0.135 8L59.932 8L120 8L120 16L120 24L68 24L16 24L16.016 42.75C16.032 60.344 16.172 61.745 18.287 65.48C21.071 70.396 25.438 72.909 38.999 77.401C58.121 83.735 76.879 86.741 103.25 87.697L120 88.305L120 96.152L120 104L110.25 103.832C104.888 103.739 98.7 103.518 96.5 103.341M184 76L184 56L204 56L224 56L224 64L224 72L212 72L200 72L200 84L200 96L192 96L184 96L184 76" />
    <glyph glyph-name="temple-6"
      unicode="&#xEA18;"
      horiz-adv-x="256" d="M62.75 222.302L0 188.752L0 166.376L0 144L128 144L256 144L256 166.378L256 188.756L193.021 222.378C158.383 240.87 129.02 255.967 127.771 255.927C126.522 255.886 97.263 240.755 62.75 222.302M184.436 209L239.93 179.5L239.965 169.75L240 160L128 160L16 160L16.036 169.75L16.073 179.5L71.786 209.188C102.429 225.517 127.824 238.792 128.221 238.688C128.617 238.585 153.914 225.225 184.436 209M121.994 215.124C103.681 209.128 98.06 188.181 111.285 175.216C121.004 165.687 134.996 165.687 144.715 175.216C156.442 186.713 153.418 205.55 138.622 213.173C134.313 215.393 125.849 216.386 121.994 215.124M131.385 198.87C134.331 197.528 136.45 192.994 135.513 190.04C135.145 188.881 133.894 187.048 132.733 185.966C126.995 180.62 117.918 187.56 120.98 194.953C122.786 199.312 126.963 200.885 131.385 198.87M24 96L24 56L32 56L40 56L40 96L40 136L32 136L24 136L24 96M88 96L88 56L96 56L104 56L104 96L104 136L96 136L88 136L88 96M152 96L152 56L160 56L168 56L168 96L168 136L160 136L152 136L152 96M216 96L216 56L224 56L232 56L232 96L232 136L224 136L216 136L216 96M0 24L0 0L128 0L256 0L256 24L256 48L128 48L0 48L0 24M240 24L240 16L128 16L16 16L16 24L16 32L128 32L240 32L240 24" />
    <glyph glyph-name="book-open-2-1"
      unicode="&#xEA19;"
      horiz-adv-x="256" d="M0 150.687L0 50.161L64 28.836L128 7.512L192 28.836L256 50.161L256 150.478L256 250.795L239.75 245.577C230.813 242.708 202.011 233.195 175.747 224.437L127.994 208.514L65.247 229.403C30.736 240.892 1.938 250.499 1.25 250.753C0.255 251.12 0 230.688 0 150.687M184.006 210.173L240.011 228.835L239.756 145.247L239.5 61.66L183.75 43.087L128 24.513L72.25 43.087L16.5 61.66L16.244 145.247L15.989 228.835L71.994 210.173L128 191.511L184.006 210.173M34.473 192.733C31.498 184.604 30.116 179.498 30.739 178.936C32.502 177.346 108.245 152.851 108.965 153.638C109.399 154.112 110.55 156.975 111.523 160C112.495 163.025 113.483 166.02 113.716 166.655C114.06 167.589 81.304 178.956 36.212 193.549C35.504 193.779 34.721 193.411 34.473 192.733M181.648 181.023C160.284 173.936 142.626 167.96 142.409 167.742C141.907 167.241 145.998 154.792 147.044 153.638C147.754 152.854 223.495 177.345 225.251 178.926C225.962 179.566 222.446 191.7 221.114 193.205C220.771 193.592 203.011 188.111 181.648 181.023M32.314 138.251C31.123 133.998 30.227 130.471 30.324 130.412C30.984 130.011 108.005 108 108.749 108C109.545 108 114.285 122.048 113.69 122.643C113.536 122.798 67.42 136.389 35.99 145.543C34.852 145.874 33.948 144.082 32.314 138.251M181.516 134.372C160.075 128.044 142.436 122.769 142.318 122.651C141.705 122.039 146.457 108 147.277 108C148.045 108 225.034 130.005 225.676 130.408C226.08 130.662 221.471 145.995 221.007 145.939C220.728 145.906 202.957 140.701 181.516 134.372M34.473 96.733C31.498 88.604 30.116 83.498 30.739 82.936C32.502 81.346 108.245 56.851 108.965 57.638C109.399 58.112 110.55 60.975 111.523 64C112.495 67.025 113.483 70.02 113.716 70.655C114.06 71.589 81.304 82.956 36.212 97.549C35.504 97.779 34.721 97.411 34.473 96.733M181.648 85.023C160.284 77.936 142.626 71.96 142.409 71.742C141.907 71.241 145.998 58.792 147.044 57.638C147.754 56.854 223.495 81.345 225.251 82.926C225.962 83.566 222.446 95.7 221.114 97.205C220.771 97.592 203.011 92.111 181.648 85.023" />
    <glyph glyph-name="book-open-1"
      unicode="&#xEA1A;"
      horiz-adv-x="256" d="M24 224.156L24 208L12 208L0 208L0 112L0 16L128 16L256 16L256 112L256 208L244 208L232 208L232 224L232 240L221.606 240C193.57 240 164.151 234.161 146 224.994C142.975 223.466 137.651 220.116 134.168 217.55L127.836 212.883L122.313 217.053C115.301 222.348 98.726 230.265 89 232.966C76.186 236.524 58.198 239.028 40.75 239.683L24 240.312L24 224.156M63.5 221.887C84.71 219.276 105.673 211.018 116.25 201.108L120 197.594L120 134.271L120 70.948L112.75 74.92C96.54 83.8 69.465 92.714 53.393 94.461C50.152 94.814 45.813 95.344 43.75 95.639L40 96.176L40 160.173L40 224.171L47.75 223.521C52.013 223.164 59.1 222.429 63.5 221.887M216 160C216 109.477 215.737 95.996 214.75 95.98C214.063 95.97 208.765 95.331 202.978 94.56C183.295 91.939 166.313 86.656 147.74 77.376C141.822 74.419 136.76 72 136.49 72C136.221 72 136 100.308 136 134.907L136 197.815L141.165 202.459C154.428 214.383 181.668 222.527 212.75 223.861L216 224L216 160M24 136.152L24 80.305L36.384 79.643C51.6 78.829 66.467 76.177 79 72.04C91.948 67.765 110.854 58.411 120.377 51.566L128.254 45.905L133.877 50.3C146.094 59.849 166.833 69.843 184.027 74.467C195.476 77.545 213.231 80 224.051 80L232 80L232 136L232 192L236 192L240 192L240 112L240 32L128 32L16 32L16 112L16 192L20 192L24 192L24 136.152" />
    <glyph glyph-name="filter-organization-4"
      unicode="&#xEA1B;"
      horiz-adv-x="256" d="M32 140L32 24L68 24L104 24L104 12L104 0L164 0L224 0L224 32L224 64L164 64L104 64L104 52L104 40L76 40L48 40L48 72L48 104L76 104L104 104L104 92L104 80L164 80L224 80L224 112L224 144L164 144L104 144L104 132L104 120L76 120L48 120L48 152L48 184L76 184L104 184L104 172L104 160L164 160L224 160L224 192L224 224L164 224L104 224L104 212L104 200L76 200L48 200L48 228L48 256L40 256L32 256L32 140M208 192L208 176L164 176L120 176L120 192L120 208L164 208L208 208L208 192M208 112L208 96L164 96L120 96L120 112L120 128L164 128L208 128L208 112M208 32L208 16L164 16L120 16L120 32L120 48L164 48L208 48L208 32" />
    <glyph glyph-name="folder-14-1"
      unicode="&#xEA1C;"
      horiz-adv-x="256" d="M0.236 144.25L0.5 40.5L3.148 34.852C6.373 27.973 12.616 21.532 18.851 18.649L23.5 16.5L128 16.5L232.5 16.5L237.149 18.649C243.384 21.532 249.627 27.973 252.852 34.852L255.5 40.5L255.772 124.25L256.044 208L190.262 208L124.48 208L112.5 228L100.52 248L50.246 248L-0.027 248L0.236 144.25M103.5 212L115.48 192L177.74 192L240 192L240 180L240 168L128 168L16 168L16 200L16 232L53.76 232L91.52 232L103.5 212M240 98.468C240 39.072 240.149 40.504 233.434 35.382L229.656 32.5L128 32.5L26.344 32.5L22.566 35.382C15.851 40.504 16 39.072 16 98.468L16 152L128 152L240 152L240 98.468" />
    <glyph glyph-name="folder-18-1"
      unicode="&#xEA1D;"
      horiz-adv-x="256" d="M0 128L0 8L102.917 8L205.833 8L230.917 83.25C249.612 139.337 256 159.71 256 163.25L256 168L153.083 168L50.167 168L33.162 117.25L16.158 66.5L16.079 149.25L16 232L41.977 232L67.953 232L80 216L92.047 200L138.023 200L184 200L184 192L184 184L192 184L200 184L200 200L200 216L150.023 216L100.047 216L88 232L75.953 248L37.977 248L0 248L0 128M215.584 88.25L194.331 24.5L106.744 24.245L19.157 23.989L40.075 86.745C51.579 121.26 61.205 150.062 61.465 150.75C61.838 151.737 80.346 152 149.387 152L236.837 152L215.584 88.25" />
    <glyph glyph-name="filter-tool-2"
      unicode="&#xEA1E;"
      horiz-adv-x="256" d="M1 247.485C1 247.201 22.361 217.838 48.469 182.235L95.938 117.5L95.969 62.75L96 8L128 8L160 8L160.013 62.75L160.027 117.5L207.513 182.226C233.631 217.825 255 247.188 255 247.476C255 247.764 197.85 248 128 248C58.15 248 1 247.768 1 247.485M220.701 227.25C218.793 224.637 200.755 200.005 180.616 172.511L144 122.522L144 73.261L144 24L128 24L112 24L112 73.252L112 122.503L75.383 172.502C55.243 200.001 37.205 224.637 35.297 227.25L31.83 232L128 232L224.17 232L220.701 227.25" />
    <glyph glyph-name="gallery-layout-1"
      unicode="&#xEA1F;"
      horiz-adv-x="256" d="M8 224L8 200L32 200L56 200L56 224L56 248L32 248L8 248L8 224M72 224L72 200L96 200L120 200L120 224L120 248L96 248L72 248L72 224M136 224L136 200L160 200L184 200L184 224L184 248L160 248L136 248L136 224M200 224L200 200L224 200L248 200L248 224L248 248L224 248L200 248L200 224M40 224L40 216L32 216L24 216L24 224L24 232L32 232L40 232L40 224M104 224L104 216L96 216L88 216L88 224L88 232L96 232L104 232L104 224M168 224L168 216L160 216L152 216L152 224L152 232L160 232L168 232L168 224M232 224L232 216L224 216L216 216L216 224L216 232L224 232L232 232L232 224M8 160L8 136L32 136L56 136L56 160L56 184L32 184L8 184L8 160M72 160L72 136L96 136L120 136L120 160L120 184L96 184L72 184L72 160M136 160L136 136L160 136L184 136L184 160L184 184L160 184L136 184L136 160M200 160L200 136L224 136L248 136L248 160L248 184L224 184L200 184L200 160M40 160L40 152L32 152L24 152L24 160L24 168L32 168L40 168L40 160M104 160L104 152L96 152L88 152L88 160L88 168L96 168L104 168L104 160M168 160L168 152L160 152L152 152L152 160L152 168L160 168L168 168L168 160M232 160L232 152L224 152L216 152L216 160L216 168L224 168L232 168L232 160M8 96L8 72L32 72L56 72L56 96L56 120L32 120L8 120L8 96M72 96L72 72L96 72L120 72L120 96L120 120L96 120L72 120L72 96M136 96L136 72L160 72L184 72L184 96L184 120L160 120L136 120L136 96M200 96L200 72L224 72L248 72L248 96L248 120L224 120L200 120L200 96M40 96L40 88L32 88L24 88L24 96L24 104L32 104L40 104L40 96M104 96L104 88L96 88L88 88L88 96L88 104L96 104L104 104L104 96M168 96L168 88L160 88L152 88L152 96L152 104L160 104L168 104L168 96M232 96L232 88L224 88L216 88L216 96L216 104L224 104L232 104L232 96M8 32L8 8L32 8L56 8L56 32L56 56L32 56L8 56L8 32M72 32L72 8L96 8L120 8L120 32L120 56L96 56L72 56L72 32M136 32L136 8L160 8L184 8L184 32L184 56L160 56L136 56L136 32M200 32L200 8L224 8L248 8L248 32L248 56L224 56L200 56L200 32M40 32L40 24L32 24L24 24L24 32L24 40L32 40L40 40L40 32M104 32L104 24L96 24L88 24L88 32L88 40L96 40L104 40L104 32M168 32L168 24L160 24L152 24L152 32L152 40L160 40L168 40L168 32M232 32L232 24L224 24L216 24L216 32L216 40L224 40L232 40L232 32" />
    <glyph glyph-name="lab-1"
      unicode="&#xEA20;"
      horiz-adv-x="256" d="M64 228L64 200L80 200L96 200L95.969 165.25L95.939 130.5L65.838 89.5C49.282 66.95 34.847 46.475 33.761 44C31.284 38.359 31.156 28.058 33.475 21.076C35.577 14.747 42.187 7.32 49.152 3.462L54.5 0.5L128 0.5L201.5 0.5L206.54 3.161C211.841 5.958 218.804 12.787 221.322 17.656C225.152 25.062 225.3 36.622 221.675 45.195C220.907 47.013 206.729 66.95 190.17 89.5L160.061 130.5L160.031 165.25L160 200L176 200L192 200L192 228L192 256L128 256L64 256L64 228M176 228L176 216L160 216L144 216L144 170.749L144 125.498L174.981 83.219C192.02 59.966 206.473 39.985 207.099 38.816C207.724 37.647 208.267 34.588 208.306 32.018C208.395 26.121 205.499 21.211 200.163 18.212L196.228 16L129.364 16.006C84.023 16.009 61.231 16.363 58.558 17.106C50.832 19.251 45.847 28.006 47.936 35.762C48.574 38.13 60.637 55.46 80.475 82.505L112 125.485L112 170.743L112 216L96 216L80 216L80 228L80 240L128 240L176 240L176 228" />
    <glyph glyph-name="log-in-2"
      unicode="&#xEA21;"
      horiz-adv-x="256" d="M112 248L112 240L172 240L232 240L232 128L232 16L172 16L112 16L112 8L112 0L180 0L248 0L248 128L248 256L180 256L112 256L112 248M113.987 189.487L108.542 183.973L132.513 159.987L156.484 136L82.242 136L8 136L8 128L8 120L82.242 120L156.484 120L132.502 96.002L108.519 72.003L114.264 66.258L120.009 60.513L153.751 94.254L187.493 127.996L154.002 161.498C135.582 179.924 120.268 195 119.971 195C119.675 195 116.982 192.519 113.987 189.487" />
    <glyph glyph-name="log-out-2"
      unicode="&#xEA22;"
      horiz-adv-x="256" d="M112 248L112 240L172 240L232 240L232 128L232 16L172 16L112 16L112 8L112 0L180 0L248 0L248 128L248 256L180 256L112 256L112 248M37.998 161.498L4.507 127.996L38.249 94.254L71.991 60.513L77.736 66.258L83.481 72.003L59.498 96.002L35.516 120L109.758 120L184 120L184 128L184 136L109.758 136L35.516 136L59.487 159.987L83.458 183.973L78.013 189.487C75.018 192.519 72.325 195 72.029 195C71.732 195 56.418 179.924 37.998 161.498" />
    <glyph glyph-name="single-05-4"
      unicode="&#xEA23;"
      horiz-adv-x="256" d="M112.5 254.364C108.65 253.554 101.239 250.833 96.032 248.317C87.97 244.422 85.21 242.388 77.447 234.622C69.737 226.908 67.613 224.033 63.687 216C56.602 201.502 55.707 195.257 56.269 164.213C56.622 144.705 57.121 137.173 58.336 133C60.997 123.858 67.531 111.855 73.337 105.441L78.822 99.382L52.211 84.941C21.964 68.527 17.151 64.764 11.709 53.274L8.5 46.5L8.169 23.25L7.839 0L128 0L248.161 0L247.831 23.25L247.5 46.5L244.272 53.315C238.912 64.631 233.998 68.463 203.716 84.941L177.178 99.382L182.663 105.441C188.469 111.855 195.003 123.858 197.664 133C198.879 137.173 199.378 144.705 199.731 164.213C200.288 195.033 199.385 201.338 192.317 215.968C188.42 224.034 186.388 226.792 178.59 234.59C170.786 242.394 168.041 244.417 159.968 248.311C144.654 255.7 128.587 257.749 112.5 254.364M146 237.039C164.013 230.876 178.672 214.471 182.562 196.122C184.576 186.619 184.508 147.782 182.463 139.103C178.072 120.478 162.751 104.207 144.119 98.381C136.23 95.915 123.465 95.519 115.5 97.494C94.929 102.594 78.243 119.139 73.537 139.103C71.473 147.862 71.425 186.621 73.467 196.257C77.561 215.579 93.965 232.837 113.173 238.033C122.837 240.647 136.679 240.228 146 237.039M97.68 86.562C107.021 82.055 114.528 80.573 128 80.573C141.425 80.573 148.982 82.057 158.2 86.504L163.134 88.884L192.317 72.948C231.491 51.556 232 50.981 232 28.134L232 16L128 16L24 16L24 28.134C24 50.919 24.518 51.506 63.5 72.942C79.45 81.712 92.528 88.913 92.563 88.944C92.597 88.975 94.9 87.903 97.68 86.562" />
    <glyph glyph-name="a-time-3"
      unicode="&#xEA24;"
      horiz-adv-x="256" d="M107.347 249.97C84.938 245.946 66.128 228.501 60.522 206.54C58.521 198.703 58.503 175.011 60.491 165.628C62.468 156.294 68.753 143.701 75.958 134.634C90.573 116.243 109.563 108.61 128.458 113.531C138.424 116.127 145.345 120.55 154.509 130.181C161.39 137.411 163.863 140.924 167.946 149.271C174.077 161.803 176 170.763 176 186.798C176 207.4 171.083 220.748 158.969 233.032C151.883 240.217 142.675 245.9 134.032 248.425C127.173 250.428 114.111 251.184 107.347 249.97M128.913 238.459C142.65 235.221 153.954 225.941 160.642 212.412L164.5 204.607L164.5 186.554C164.5 170.247 164.278 167.886 162.209 162.16C156.951 147.608 145.148 133.023 133.69 126.915C126.545 123.107 116.501 121.961 108.049 123.988C91.915 127.859 74.178 149.827 70.495 170.501C66.237 194.402 70.578 212.709 83.6 225.767C95.737 237.939 111.906 242.468 128.913 238.459M184.782 110.447C176.7 108.488 168.179 103.928 161.895 98.2L156.5 93.283L149.5 94.266C139.205 95.713 96.248 95.64 84.5 94.156C61.462 91.246 36.746 85.462 27.759 80.877C21.277 77.57 13.578 69.617 10.185 62.722C6.26 54.746 5.017 46.832 5.008 29.75L5 16L64.052 16L123.105 16L122.802 21.25L122.5 26.5L69.25 26.759L16 27.018L16 37.327C16 53.811 19.892 62.68 30.158 69.591C37.808 74.741 62.983 80.921 86.707 83.472C106.626 85.614 146.107 85.226 148.468 82.865C148.764 82.57 148.078 79.667 146.945 76.414C144.032 68.055 143.374 55.25 145.413 46.603C150.097 26.738 166.521 10.709 186.5 6.507C195.242 4.668 199.715 4.656 208.174 6.449C218.044 8.541 225.571 12.646 233.764 20.403C249.762 35.551 254.848 57.587 247.072 78.053C237.839 102.352 210.352 116.646 184.782 110.447M209.416 99.487C229.707 93.332 242.724 72.511 239.185 51.873C232.68 13.939 183.328 3.298 162.004 35.231C156.583 43.35 154.694 50.499 155.191 61.017C155.519 67.955 156.18 70.787 158.755 76.291C163.895 87.275 173.767 95.878 185.5 99.598C191.006 101.344 203.486 101.286 209.416 99.487M192 69L192 53L208 53L224 53L224 58.5L224 64L213.5 64L203 64L203 74.5L203 85L197.5 85L192 85L192 69" />
    <glyph glyph-name="temple-8"
      unicode="&#xEA25;"
      horiz-adv-x="256" d="M66.5 212.665L5.5 179.359L5.229 159.179L4.959 139L128 139L251.041 139L250.771 159.16L250.5 179.32L190 212.273C156.725 230.397 129.05 245.393 128.5 245.598C127.95 245.803 100.05 230.983 66.5 212.665M184.335 203.129L240 172.758L240 160.879L240 149L128 149L16 149L16 160.89L16 172.78L71.75 203.279C102.413 220.054 127.763 233.716 128.085 233.639C128.407 233.563 153.72 219.833 184.335 203.129M119.5 206.104C111.796 202.537 107 195.016 107 186.5C107 174.538 115.976 165.609 128 165.609C140.13 165.609 149.034 174.568 148.978 186.718C148.908 202.003 133.098 212.4 119.5 206.104M134.462 194.75C139.249 190.564 139.469 182.544 134.91 178.419C132.005 175.79 124.007 175.779 121.111 178.4C116.24 182.808 116.762 191.619 122.117 195.369C125.516 197.75 131.366 197.457 134.462 194.75M27 85.5L27 48L16 48L5 48L5 26.496L5 4.992L127.75 5.246L250.5 5.5L250.77 26.75L251.04 48L240.02 48L229 48L229 85.5L229 123L224 123L219 123L219 85.5L219 48L192 48L165 48L165 85.5L165 123L160 123L155 123L155 85.5L155 48L128 48L101 48L101 85.5L101 123L96 123L91 123L91 85.5L91 48L64 48L37 48L37 85.5L37 123L32 123L27 123L27 85.5M240 26.5L240 16L128 16L16 16L16 26.5L16 37L128 37L240 37L240 26.5" />
    <glyph glyph-name="book-open-2-2"
      unicode="&#xEA26;"
      horiz-adv-x="256" d="M5 145.159L5 49.317L66.5 32.545L128 15.772L189.5 32.545L251 49.317L251 145.159C251 230.752 250.835 241 249.461 241C248.615 241 220.939 233.603 187.959 224.563L127.995 208.127L67.799 224.563C34.69 233.603 7.016 241 6.301 241C5.242 241 5 223.167 5 145.159M184 212.456L240 227.672L240 142.53L240 57.387L184 42.133L128 26.88L72 42.133L16 57.387L16 142.53L16 227.672L72 212.456L128 197.239L184 212.456M48.175 180.365C47.494 177.816 47.164 175.502 47.443 175.223C48.172 174.495 96.162 161.084 98.203 161.038C99.333 161.013 100.256 162.262 100.947 164.75C102.371 169.877 102.276 170.781 100.25 171.4C96.328 172.597 50.469 185 49.962 185C49.661 185 48.857 182.914 48.175 180.365M179.519 177.873C165.779 174.022 154.388 170.721 154.204 170.538C153.688 170.021 155.052 163.535 155.999 162.002C156.685 160.891 161.571 161.927 181.896 167.492C195.675 171.264 207.428 174.647 208.015 175.009C209.363 175.843 207.076 185.029 205.543 184.937C204.969 184.903 193.258 181.724 179.519 177.873M48.074 135.378C47.434 132.836 47.059 130.608 47.241 130.426C47.423 130.244 59.187 126.856 73.384 122.897C93.964 117.158 99.363 115.97 100.021 117.035C101.056 118.708 102.281 125.052 101.686 125.648C101.114 126.22 51.864 139.989 50.369 139.995C49.747 139.998 48.714 137.92 48.074 135.378M179.161 133.003C165.774 129.237 154.608 125.941 154.346 125.68C153.724 125.058 154.917 118.752 155.983 117.027C156.648 115.951 161.943 117.106 182.553 122.821C196.71 126.747 208.472 130.139 208.691 130.358C208.911 130.577 208.566 132.836 207.926 135.378C207.122 138.574 206.259 139.977 205.131 139.926C204.234 139.885 192.547 136.77 179.161 133.003M48.074 87.378C47.434 84.836 47.089 82.577 47.309 82.358C47.528 82.139 59.29 78.747 73.447 74.821C94.057 69.106 99.352 67.951 100.017 69.027C101.055 70.708 102.283 77.051 101.685 77.648C101.122 78.212 51.892 91.966 50.369 91.985C49.747 91.993 48.714 89.92 48.074 87.378M179.161 85.003C165.774 81.237 154.608 77.941 154.346 77.68C153.724 77.057 154.917 70.752 155.984 69.025C156.651 67.947 161.914 69.087 182.503 74.769C196.632 78.668 208.387 82.054 208.628 82.294C208.868 82.534 208.506 84.816 207.825 87.365C207.01 90.412 206.057 91.975 205.043 91.926C204.194 91.885 192.547 88.77 179.161 85.003" />
    <glyph glyph-name="book-open-3"
      unicode="&#xEA27;"
      horiz-adv-x="256" d="M37.75 234.458C37.337 234.023 37 229.017 37 223.333L37 213L21 213L5 213L5 120L5 27L128 27L251 27L251 120L251 213L235.034 213L219.068 213L218.784 223.75L218.5 234.5L205.5 234.398C175.006 234.158 148.568 228.406 133.086 218.645L127.716 215.259L123.464 218.129C113.559 224.814 97.289 229.944 77.723 232.553C64.233 234.351 38.798 235.563 37.75 234.458M77.931 221.864C95.365 219.469 112.679 213.551 119.75 207.571L123 204.822L123 163.911L123 123L128 123L133 123L133 163.813L133 204.626L135.75 207.207C144.826 215.727 167.153 221.758 196.25 223.549L208 224.272L208 154.788L208 85.305L195.75 84.647C167.978 83.156 145.755 77.484 131.987 68.372L128.374 65.982L120.437 70.506C106.19 78.627 86.51 83.237 60.006 84.662L48 85.307L48 154.796L48 224.285L59.25 223.585C65.438 223.2 73.844 222.426 77.931 221.864M37 139.155L37 75.311L52.617 74.637C88.06 73.109 108.497 67.777 122.437 56.422L128.014 51.879L133.757 56.377C148.509 67.931 168.318 73.14 203.175 74.63L219 75.307L219 139.153L219 203L229.5 203L240 203L240 120L240 37L128 37L16 37L16 120L16 203L26.5 203L37 203L37 139.155" />
    <glyph glyph-name="filter-organization-2"
      unicode="&#xEA28;"
      horiz-adv-x="256" d="M27 136L27 27L64 27L101 27L101 16L101 5L165 5L229 5L229 32L229 59L165 59L101 59L101 48L101 37L69 37L37 37L37 74.5L37 112L69 112L101 112L101 101.5L101 91L165 91L229 91L229 117.5L229 144L165 144L101 144L101 133.5L101 123L69 123L37 123L37 160L37 197L69 197L101 197L101 186.5L101 176L165 176L229 176L229 202.5L229 229L165 229L101 229L101 218.5L101 208L69 208L37 208L37 226.5L37 245L32 245L27 245L27 136M218.775 202.75L219.051 187L165.525 187L112 187L112 203.009L112 219.018L165.25 218.759L218.5 218.5L218.775 202.75M218.775 117.25L218.5 101.5L165.25 101.241L112 100.982L112 116.991L112 133L165.525 133L219.051 133L218.775 117.25M219 32L219 16L165.5 16L112 16L112 32L112 48L165.5 48L219 48L219 32" />
    <glyph glyph-name="folder-14-2"
      unicode="&#xEA29;"
      horiz-adv-x="256" d="M5.223 138.26C5.499 36.881 5.508 36.483 7.624 32C10.186 26.573 14.965 21.604 20.447 18.67L24.5 16.5L128 16.5L231.5 16.5L235.553 18.67C241.035 21.604 245.814 26.573 248.376 32C250.479 36.455 250.503 37.311 250.784 116.742L251.068 196.985L188.284 197.242L125.5 197.5L112.389 218.5L99.277 239.5L52.111 239.76L4.945 240.02L5.223 138.26M106.491 207.961L119.483 187L179.741 187L240 187L240 171L240 155L128 155L16 155L16 192L16 229L54.75 228.961L93.5 228.922L106.491 207.961M240 91.968C240 35.048 240.111 36.195 234.057 30.5L230.869 27.5L128 27.5L25.131 27.5L21.943 30.5C15.889 36.195 16 35.048 16 91.968L16 144L128 144L240 144L240 91.968" />
    <glyph glyph-name="folder-18-2"
      unicode="&#xEA2A;"
      horiz-adv-x="256" d="M5 128L5 16L105.813 16L206.626 16L229.313 89.764C241.791 130.335 252 163.86 252 164.264C252 164.669 206.395 165 150.657 165L49.313 165L32.711 111.25L16.109 57.5L16.055 143.25L16 229L49.342 229L82.685 229L93.346 213L104.007 197L150.461 197L196.916 197L197.208 189.25L197.5 181.5L202.75 181.198L208 180.895L208 194.448L208 208L158.75 208.022L109.5 208.043L99 224L88.5 239.957L46.75 239.978L5 240L5 128M238 154.58C238 154.349 229.432 126.337 218.96 92.33C208.488 58.324 199.682 29.713 199.392 28.75C198.895 27.1 193.686 27 108.326 27C29.98 27 17.86 27.194 18.338 28.438C18.642 29.23 27.549 58.03 38.133 92.438L57.375 155L147.688 155C197.359 155 238 154.811 238 154.58" />
    <glyph glyph-name="filter-tool-3"
      unicode="&#xEA2B;"
      horiz-adv-x="256" d="M12 239.497C12 239.22 32.025 208.958 56.5 172.248L101 105.502L101 58.251L101 11L128 11L155 11L155 58.251L155 105.502L199.5 172.248C223.975 208.958 244 239.22 244 239.497C244 239.773 191.8 240 128 240C64.2 240 12 239.773 12 239.497M222.439 226.25C221.455 224.737 203.403 197.626 182.324 166.001L144 108.503L144 64.751L144 21L128 21L112 21L112 64.632L112 108.265L73.363 166.382C52.112 198.347 34.06 225.512 33.248 226.75L31.77 229L128 229L224.23 229L222.439 226.25" />
    <glyph glyph-name="gallery-layout-2"
      unicode="&#xEA2C;"
      horiz-adv-x="256" d="M16 218.48L16 196.96L37.25 197.23L58.5 197.5L58.77 218.75L59.04 240L37.52 240L16 240L16 218.48M75 218.5L75 197L96 197L117 197L117 218.5L117 240L96 240L75 240L75 218.5M133 218.5L133 197L154.5 197L176 197L176 218.5L176 240L154.5 240L133 240L133 218.5M192 218.48L192 196.96L213.25 197.23L234.5 197.5L234.77 218.75L235.04 240L213.52 240L192 240L192 218.48M48 218.5L48 208L37.5 208L27 208L27 218.5L27 229L37.5 229L48 229L48 218.5M107 218.5L107 208L96 208L85 208L85 218.5L85 229L96 229L107 229L107 218.5M165 218.5L165 208L154.5 208L144 208L144 218.5L144 229L154.5 229L165 229L165 218.5M224 218.5L224 208L213.5 208L203 208L203 218.5L203 229L213.5 229L224 229L224 218.5M16 160L16 139L37.5 139L59 139L59 160L59 181L37.5 181L16 181L16 160M75 160L75 139L96 139L117 139L117 160L117 181L96 181L75 181L75 160M133 160L133 139L154.5 139L176 139L176 160L176 181L154.5 181L133 181L133 160M192 160L192 139L213.5 139L235 139L235 160L235 181L213.5 181L192 181L192 160M48 160L48 149L37.5 149L27 149L27 160L27 171L37.5 171L48 171L48 160M106.5 160L106.5 149.5L96 149.5L85.5 149.5L85.21 158.925C85.051 164.109 85.155 168.962 85.442 169.71C85.846 170.762 88.296 171.006 96.232 170.785L106.5 170.5L106.5 160M165 160L165 149L154.5 149L144 149L144 160L144 171L154.5 171L165 171L165 160M224 160L224 149L213.5 149L203 149L203 160L203 171L213.5 171L224 171L224 160M16 101.52L16 80L37.52 80L59.04 80L58.77 101.25L58.5 122.5L37.25 122.77L16 123.04L16 101.52M75 101.5L75 80L96 80L117 80L117 101.5L117 123L96 123L75 123L75 101.5M133 101.5L133 80L154.5 80L176 80L176 101.5L176 123L154.5 123L133 123L133 101.5M192 101.52L192 80L213.52 80L235.04 80L234.77 101.25L234.5 122.5L213.25 122.77L192 123.04L192 101.52M48 101.5L48 91L37.5 91L27 91L27 101.5L27 112L37.5 112L48 112L48 101.5M107 101.5L107 91L96 91L85 91L85 101.5L85 112L96 112L107 112L107 101.5M165 101.5L165 91L154.5 91L144 91L144 101.5L144 112L154.5 112L165 112L165 101.5M224 101.5L224 91L213.5 91L203 91L203 101.5L203 112L213.5 112L224 112L224 101.5M16 42.48L16 20.96L37.25 21.23L58.5 21.5L58.77 42.75L59.04 64L37.52 64L16 64L16 42.48M75 42.5L75 21L96 21L117 21L117 42.5L117 64L96 64L75 64L75 42.5M133 42.5L133 21L154.5 21L176 21L176 42.5L176 64L154.5 64L133 64L133 42.5M192 42.48L192 20.96L213.25 21.23L234.5 21.5L234.77 42.75L235.04 64L213.52 64L192 64L192 42.48M48 42.5L48 32L37.5 32L27 32L27 42.5L27 53L37.5 53L48 53L48 42.5M107 42.5L107 32L96 32L85 32L85 42.5L85 53L96 53L107 53L107 42.5M165 42.5L165 32L154.5 32L144 32L144 42.5L144 53L154.5 53L165 53L165 42.5M224 42.5L224 32L213.5 32L203 32L203 42.5L203 53L213.5 53L224 53L224 42.5" />
    <glyph glyph-name="lab-2"
      unicode="&#xEA2D;"
      horiz-adv-x="256" d="M75 229.5L75 208L88 208L101 208L101 168.684L101 129.369L71.021 88.434C54.532 65.92 40.082 45.566 38.909 43.203C35.786 36.911 36.02 27.523 39.477 20.458C42.293 14.702 45.826 11.21 52.384 7.702L56.5 5.5L128 5.5C207.812 5.5 202.613 5.052 211.05 12.653C218.499 19.363 221.434 29.655 218.607 39.153C217.353 43.365 210.432 53.512 186.008 86.949L155 129.398L155 168.699L155 208L168 208L181 208L181 229.5L181 251L128 251L75 251L75 229.5M171 229.5L171 219L157.5 219L144 219L144 172.631L144 126.263L175.988 82.454C197.107 53.53 208.188 37.517 208.599 35.323C210.002 27.846 206.038 20.167 199.329 17.364C195.089 15.592 64.889 15.348 58.579 17.1C51.082 19.181 45.944 27.557 47.4 35.321C47.859 37.767 57.777 52.12 80.03 82.541L112 126.247L112 172.623L112 219L98.5 219L85 219L85 229.5L85 240L128 240L171 240L171 229.5" />
    <glyph glyph-name="log-out-3"
      unicode="&#xEA2E;"
      horiz-adv-x="256" d="M91 245.5L91 240L155 240L219 240L219 128L219 16L155 16L91 16L91 10.5L91 5L160 5L229 5L229 128L229 251L160 251L91 251L91 245.5M54.982 158.482L24.512 128L54.982 97.518L85.452 67.036L89.246 70.74L93.04 74.445L68.778 98.722L44.515 123L118.258 123L192 123L192 128L192 133L118.258 133L44.515 133L68.778 157.278L93.04 181.555L89.246 185.26L85.452 188.964L54.982 158.482" />
    <glyph glyph-name="single-05-2"
      unicode="&#xEA2F;"
      horiz-adv-x="256" d="M118 250.057C104.887 247.608 95.313 242.256 85.568 231.925C74.92 220.637 70.38 209.597 69.356 192.5C67.855 167.445 74.428 147.72 89.899 130.847L96 124.193L96 112.097C96 105.444 95.812 100 95.582 100C94.636 100 43.228 86.029 40 84.895C29.653 81.259 21.452 72.339 17.867 60.819C16.255 55.641 16 51.42 16 29.911L16 5L128 5L240 5L240 30.032C240 52.743 239.807 55.636 237.919 61.241C233.958 73 226.283 81.282 216 84.895C212.772 86.029 161.364 100 160.418 100C160.188 100 160 105.444 160 112.097L160 124.193L166.101 130.847C181.572 147.72 188.145 167.445 186.644 192.5C185.62 209.597 181.08 220.637 170.432 231.925C162.491 240.343 156.651 244.217 146.898 247.536C138.736 250.314 125.541 251.465 118 250.057M137.447 238.925C146.818 237.193 153.765 233.339 161.552 225.552C173.373 213.731 176.604 203.897 175.781 182.239C175.023 162.294 169.915 150.188 156.406 136.316C146.465 126.108 140.68 123.5 127.979 123.5C119.255 123.5 117.904 123.772 111.845 126.756C100.189 132.494 88.705 146.73 83.281 162.165C81.202 168.082 80.61 171.963 80.219 182.239C79.393 203.994 82.594 213.761 94.42 225.568C106.643 237.769 120.473 242.063 137.447 238.925M128 112.595C136.349 112.595 139.576 113.027 143.75 114.701L149 116.808L149 104.442L149 92.077L153.25 90.944C214.435 74.629 218.426 73.241 223.583 66.48C228.344 60.238 228.909 57.008 228.956 35.75L229 16L128 16L27 16L27.044 35.75C27.091 57.008 27.656 60.238 32.417 66.48C37.574 73.241 41.565 74.629 102.75 90.944L107 92.077L107 104.442L107 116.808L112.25 114.701C116.424 113.027 119.651 112.595 128 112.595" />
    <glyph glyph-name="a-time-4"
      unicode="&#xEA30;"
      horiz-adv-x="256" d="M99.513 250.825C96.77 250.302 90.731 248.096 86.091 245.922C75.148 240.793 63.277 229.178 58.166 218.599C49.832 201.347 50.1 180.991 58.905 162.5C71.751 135.521 94.788 121.122 119.425 124.671C152.399 129.422 178.055 169.77 170.566 205.099C168.24 216.073 163.5 224.481 154.422 233.734C147.758 240.527 144.869 242.657 137.922 245.9C125.436 251.729 112.769 253.353 99.513 250.825M125.344 242.04C152.505 235.093 168.815 207.741 162.561 179.627C159.823 167.323 154.023 156.941 144.58 147.443C135.421 138.23 128.777 134.468 118.587 132.722C105.356 130.456 92.724 134.649 81.689 144.972C73.206 152.907 66.893 162.393 63.341 172.538C60.897 179.517 60.559 181.919 60.598 192C60.635 201.569 61.032 204.507 62.963 209.5C69.333 225.967 82.158 237.773 98.259 241.992C107.657 244.455 115.845 244.469 125.344 242.04M186.15 105.965C178.951 104.079 174.68 101.991 168.341 97.26C165.186 94.904 165.172 94.903 156.841 96.444C113.593 104.443 53.655 98.663 21.334 83.378C13.895 79.859 10.447 76.617 6.702 69.616C4.616 65.717 4.484 64.089 4.19 38.75L3.881 12L69.94 12L136 12L136 16L136 20L74 20L12 20L12.006 39.75C12.009 50.613 12.489 61.219 13.072 63.321C14.885 69.85 19.983 74.383 30.041 78.409C41.348 82.934 58.993 87.398 74.5 89.656C95.561 92.722 137.275 92.078 156.174 88.396L158.848 87.875L156.06 83.687C150.392 75.176 148.63 68.608 148.63 56C148.63 46.347 149.003 43.537 150.957 38.5C155.794 26.027 164.304 16.315 175.728 10.226C203.495 -4.574 237.409 8.505 249.043 38.5C250.997 43.537 251.37 46.347 251.37 56C251.37 65.653 250.997 68.463 249.043 73.5C238.957 99.504 212.878 112.966 186.15 105.965M209.201 98.891C231.259 94.276 246.874 71.56 243.206 49.422C240.074 30.524 225.526 15.934 206.704 12.815C178.056 8.068 152.043 33.905 156.767 62.413C160.958 87.704 184.474 104.065 209.201 98.891M196 66L196 52L210 52L224 52L224 56L224 60L214 60L204 60L204 70L204 80L200 80L196 80L196 66" />
    <glyph glyph-name="temple-9"
      unicode="&#xEA31;"
      horiz-adv-x="256" d="M65.254 215.191L4.008 182.5L4.004 165.25L4 148L128 148L252 148L251.996 165.25L251.992 182.5L190.493 215.25C156.668 233.263 128.432 247.973 127.747 247.941C127.061 247.908 98.939 233.171 65.254 215.191M186.448 208.298L244 177.597L244 166.798L244 156L128 156L12 156L12 166.799L12 177.597L69.25 208.228C100.737 225.075 127.039 238.89 127.698 238.929C128.357 238.968 154.794 225.184 186.448 208.298M119 209.752C116.525 208.429 113.15 205.428 111.5 203.083C108.874 199.352 108.5 197.968 108.504 191.991C108.507 186.021 108.885 184.626 111.504 180.907C122.516 165.272 146.038 171.573 147.667 190.595C148.091 195.536 147.779 197.235 145.76 201C140.464 210.874 128.45 214.803 119 209.752M136.407 200.055C139.049 197.413 139.5 196.224 139.5 191.904C139.5 187.341 139.135 186.512 135.765 183.423C132.804 180.71 131.194 180 128 180C124.806 180 123.196 180.71 120.235 183.423C116.877 186.501 116.5 187.35 116.5 191.843C116.5 197.085 119.014 201.127 123.5 203.097C127.239 204.739 133.105 203.357 136.407 200.055M28 88L28 44L16 44L4 44L4 24L4 4L128 4L252 4L252 24L252 44L240 44L228 44L228 88L228 132L224 132L220 132L220 88L220 44L192 44L164 44L164 88L164 132L160 132L156 132L156 88L156 44L128 44L100 44L100 88L100 132L96 132L92 132L92 88L92 44L64 44L36 44L36 88L36 132L32 132L28 132L28 88M244 24L244 12L128 12L12 12L12 24L12 36L128 36L244 36L244 24" />
    <glyph glyph-name="book-open-2-4"
      unicode="&#xEA32;"
      horiz-adv-x="256" d="M4 149.083L4 53.167L66 32.5L128 11.833L190 32.5L252 53.167L252 149.083C252 201.837 251.658 245 251.241 245C250.823 245 222.923 235.811 189.241 224.58L128 204.161L66.759 224.58C33.077 235.811 5.177 245 4.759 245C4.342 245 4 201.837 4 149.083M70.75 214.917L128 195.833L185.25 214.917C216.738 225.413 242.84 234 243.256 234C243.671 234 243.896 194.55 243.755 146.334L243.5 58.669L185.75 39.416L128 20.162L70.25 39.416L12.5 58.669L12.245 146.334C12.104 194.55 12.329 234 12.744 234C13.16 234 39.262 225.413 70.75 214.917M36.2 185.301C35.576 183.266 35.163 181.528 35.282 181.438C36.114 180.811 106.186 157.866 106.414 158.146C106.573 158.341 107.204 159.983 107.815 161.795C108.664 164.311 108.64 165.199 107.714 165.548C106.422 166.035 37.601 189 37.434 189C37.38 189 36.825 187.335 36.2 185.301M183.5 177.425C164.8 171.145 148.954 165.801 148.286 165.549C147.36 165.199 147.336 164.311 148.185 161.795C148.796 159.983 149.427 158.341 149.586 158.146C149.814 157.866 219.886 180.811 220.718 181.438C221.175 181.783 218.635 188.996 218.082 188.922C217.762 188.879 202.2 183.706 183.5 177.425M36.093 139.838C35.487 138.099 35.158 136.509 35.362 136.304C35.984 135.683 104.383 113 105.636 113C106.753 113 109.409 118.924 108.638 119.696C108.016 120.317 39.617 143 38.364 143C37.721 143 36.7 141.577 36.093 139.838M181.619 131.458C162.985 125.196 147.571 119.904 147.365 119.698C146.592 118.925 149.245 113 150.364 113C151.617 113 220.016 135.683 220.638 136.304C221.632 137.298 218.633 142.992 217.152 142.922C216.243 142.879 200.254 137.72 181.619 131.458M36.2 89.301C35.576 87.266 35.163 85.528 35.282 85.438C36.114 84.811 106.186 61.866 106.414 62.146C106.573 62.341 107.204 63.983 107.815 65.795C108.664 68.311 108.64 69.199 107.714 69.548C106.422 70.035 37.601 93 37.434 93C37.38 93 36.825 91.335 36.2 89.301M183.5 81.425C164.8 75.145 148.954 69.801 148.286 69.549C147.36 69.199 147.336 68.311 148.185 65.795C148.796 63.983 149.427 62.341 149.586 62.146C149.814 61.866 219.886 84.811 220.718 85.438C221.175 85.783 218.635 92.996 218.082 92.922C217.762 92.879 202.2 87.706 183.5 81.425" />
    <glyph glyph-name="book-open-4"
      unicode="&#xEA33;"
      horiz-adv-x="256" d="M28 232.156L28 220L16 220L4 220L4 120L4 20L128 20L252 20L252 120L252 220L240 220L228 220L228 232.156L228 244.311L214.25 243.683C183.054 242.26 151.628 233.121 132.296 219.852L128.091 216.967L122.796 220.349C101.22 234.131 72.995 242.257 41.75 243.683L28 244.311L28 232.156M66.611 232.955C85.619 229.75 106.757 221.742 119.75 212.822L124 209.904L124 156.952L124 104L128 104L132 104L132 156.952L132 209.904L136.25 212.822C154.044 225.038 181.453 233.45 210.25 235.533L220 236.238L220 158.248L220 80.258L209.75 79.55C180.69 77.543 150.393 68.273 132.296 55.852L128.091 52.967L122.796 56.349C102.506 69.31 75.351 77.54 46.25 79.55L36 80.258L36 158.248L36 236.238L45.75 235.533C51.112 235.145 60.5 233.985 66.611 232.955M28 142.155L28 72.31L41.3 71.672C73.428 70.131 101.086 61.792 121.75 47.415L128 43.067L134.25 47.415C154.914 61.792 182.572 70.131 214.7 71.672L228 72.31L228 142.155L228 212L236 212L244 212L244 120L244 28L128 28L12 28L12 120L12 212L20 212L28 212L28 142.155" />
    <glyph glyph-name="filter-organization-3"
      unicode="&#xEA34;"
      horiz-adv-x="256" d="M28 138L28 28L64 28L100 28L100 18L100 8L164 8L228 8L228 32L228 56L164 56L100 56L100 46L100 36L68 36L36 36L36 72L36 108L68 108L100 108L100 98L100 88L164 88L228 88L228 112L228 136L164 136L100 136L100 126L100 116L68 116L36 116L36 152L36 188L68 188L100 188L100 178L100 168L164 168L228 168L228 192L228 216L164 216L100 216L100 206L100 196L68 196L36 196L36 222L36 248L32 248L28 248L28 138M220 192L220 176L164 176L108 176L108 192L108 208L164 208L220 208L220 192M220 112L220 96L164 96L108 96L108 112L108 128L164 128L220 128L220 112M220 32L220 16L164 16L108 16L108 32L108 48L164 48L220 48L220 32" />
    <glyph glyph-name="folder-14-3"
      unicode="&#xEA35;"
      horiz-adv-x="256" d="M8 138.366C8 64.633 8.298 39.724 9.216 36.616C10.839 31.123 19.123 22.839 24.616 21.216C30.554 19.462 225.446 19.462 231.384 21.216C236.877 22.839 245.161 31.123 246.784 36.616C247.693 39.693 248 60.336 248 118.366L248 196L185.126 196L122.252 196L110.376 215.974L98.5 235.947L53.25 235.974L8 236L8 138.366M105.624 208.026L117.5 188.053L178.75 188.026L240 188L240 176L240 164L128 164L16 164L16 196L16 228L54.874 228L93.748 228L105.624 208.026M240 98.468C240 34.669 240.182 36.529 233.434 31.382L229.656 28.5L128 28.5L26.344 28.5L22.566 31.382C15.818 36.529 16 34.669 16 98.468L16 156L128 156L240 156L240 98.468" />
    <glyph glyph-name="folder-18-3"
      unicode="&#xEA36;"
      horiz-adv-x="256" d="M4 128.012L4 16L101.406 16L198.812 16L200.292 20.25C201.106 22.588 212.398 54.579 225.386 91.341C238.374 128.104 249 158.592 249 159.091C249 159.63 209.136 160 151.098 160L53.196 160L52.226 157.25C25.078 80.245 12.71 45.416 12.395 45.083C12.178 44.854 12 86.817 12 138.333L12 232L42.941 232L73.883 232L83.75 218.25L93.617 204.5L140.808 204.24L188 203.98L188 189.99L188 176L192 176L196 176L196 194L196 212L147.059 212L98.117 212L88.25 225.75L78.384 239.5L41.192 239.762L4 240.024L4 128.012M237.956 151.25C237.932 150.838 227.886 122.15 215.632 87.5L193.352 24.5L103.676 24.245C54.354 24.104 14 24.224 14 24.511C14 24.973 55.878 143.919 58.077 149.703L58.95 152L148.475 152C197.714 152 237.98 151.662 237.956 151.25" />
    <glyph glyph-name="filter-tool-5"
      unicode="&#xEA37;"
      horiz-adv-x="256" d="M54.038 181.405L100 118.809L100 65.405L100 12L128 12L156 12L156 65.406L156 118.811L201.955 181.406L247.909 244L127.993 244L8.076 244L54.038 181.405M229.79 232.75C228.443 230.962 209.49 205.138 187.671 175.362L148 121.225L148 70.612L148 20L128 20L108 20L108 70.612L108 121.225L68.329 175.362C46.51 205.138 27.557 230.962 26.21 232.75L23.763 236L128 236L232.237 236L229.79 232.75" />
    <glyph glyph-name="gallery-layout-3"
      unicode="&#xEA38;"
      horiz-adv-x="256" d="M20 216L20 196L40 196L60 196L60 216L60 236L40 236L20 236L20 216M80 216L80 196L100 196L120 196L120 216L120 236L100 236L80 236L80 216M140 216L140 196L160 196L180 196L180 216L180 236L160 236L140 236L140 216M200 216L200 196L220 196L240 196L240 216L240 236L220 236L200 236L200 216M52 216L52 204L40 204L28 204L28 216L28 228L40 228L52 228L52 216M112 216L112 204L100 204L88 204L88 216L88 228L100 228L112 228L112 216M172 216L172 204L160 204L148 204L148 216L148 228L160 228L172 228L172 216M232 216L232 204L220 204L208 204L208 216L208 228L220 228L232 228L232 216M20 156L20 136L40 136L60 136L60 156L60 176L40 176L20 176L20 156M80 156L80 136L100 136L120 136L120 156L120 176L100 176L80 176L80 156M140 156L140 136L160 136L180 136L180 156L180 176L160 176L140 176L140 156M200 156L200 136L220 136L240 136L240 156L240 176L220 176L200 176L200 156M52 156L52 144L40 144L28 144L28 156L28 168L40 168L52 168L52 156M112 156L112 144L100 144L88 144L88 156L88 168L100 168L112 168L112 156M172 156L172 144L160 144L148 144L148 156L148 168L160 168L172 168L172 156M232 156L232 144L220 144L208 144L208 156L208 168L220 168L232 168L232 156M20 96L20 76L40 76L60 76L60 96L60 116L40 116L20 116L20 96M80 96L80 76L100 76L120 76L120 96L120 116L100 116L80 116L80 96M140 96L140 76L160 76L180 76L180 96L180 116L160 116L140 116L140 96M200 96L200 76L220 76L240 76L240 96L240 116L220 116L200 116L200 96M52 96L52 84L40 84L28 84L28 96L28 108L40 108L52 108L52 96M112 96L112 84L100 84L88 84L88 96L88 108L100 108L112 108L112 96M172 96L172 84L160 84L148 84L148 96L148 108L160 108L172 108L172 96M232 96L232 84L220 84L208 84L208 96L208 108L220 108L232 108L232 96M20 36L20 16L40 16L60 16L60 36L60 56L40 56L20 56L20 36M80 36L80 16L100 16L120 16L120 36L120 56L100 56L80 56L80 36M140 36L140 16L160 16L180 16L180 36L180 56L160 56L140 56L140 36M200 36L200 16L220 16L240 16L240 36L240 56L220 56L200 56L200 36M52 36L52 24L40 24L28 24L28 36L28 48L40 48L52 48L52 36M112 36L112 24L100 24L88 24L88 36L88 48L100 48L112 48L112 36M172 36L172 24L160 24L148 24L148 36L148 48L160 48L172 48L172 36M232 36L232 24L220 24L208 24L208 36L208 48L220 48L232 48L232 36" />
    <glyph glyph-name="lab-3"
      unicode="&#xEA39;"
      horiz-adv-x="256" d="M72 232L72 212L86 212L100 212L100 170.661L100 129.322L68.086 83.686C43.419 48.412 35.957 37.039 35.224 33.6C34.137 28.503 35.125 20.593 37.398 16.197C39.959 11.245 46.684 6.21 52.38 4.979C55.936 4.211 79.947 3.969 131 4.187L204.5 4.5L208.624 6.706C218.538 12.009 223.208 22.998 220.561 34.793C220.138 36.678 206.169 57.59 187.911 83.674L156 129.261L156 170.63L156 212L170 212L184 212L184 232L184 252L128 252L72 252L72 232M176 232L176 220L162 220L148 220L148 173.365L148 126.73L179.25 82.22C196.438 57.739 211.114 36.578 211.865 35.195C213.935 31.384 213.586 23.684 211.165 19.767C210.029 17.928 207.308 15.417 205.119 14.187L201.139 11.95L127.319 12.225C55.529 12.492 53.409 12.555 50.181 14.5C43.417 18.576 40.508 28.524 44.132 35.187C44.884 36.571 59.562 57.729 76.75 82.206L108 126.709L108 173.355L108 220L94 220L80 220L80 232L80 244L128 244L176 244L176 232" />
    <glyph glyph-name="log-out-4"
      unicode="&#xEA3A;"
      horiz-adv-x="256" d="M100 244L100 240L160 240L220 240L220 128L220 16L160 16L100 16L100 12L100 8L164 8L228 8L228 128L228 248L164 248L100 248L100 244M40.998 158.498L10.508 127.996L41.244 97.26L71.979 66.525L74.725 69.27L77.47 72.016L51.492 98.008L25.514 124L104.757 124L184 124L184 128L184 132L104.757 132L25.514 132L51.465 157.965L77.415 183.929L75.033 186.465C73.723 187.859 72.39 189 72.07 189C71.75 189 57.767 175.274 40.998 158.498" />
    <glyph glyph-name="single-05-3"
      unicode="&#xEA3B;"
      horiz-adv-x="256" d="M115.513 250.825C112.77 250.302 106.731 248.096 102.091 245.922C95.146 242.667 92.23 240.515 85.578 233.734C76.5 224.481 71.76 216.073 69.434 205.099C67.51 196.026 67.574 172.037 69.548 162.208C72.291 148.544 82.235 131.091 92.073 122.669L96 119.308L96 107.196L96 95.085L89.25 93.098C85.537 92.005 71.925 88.111 59 84.444C46.075 80.777 33.345 76.621 30.712 75.209C24.509 71.882 18.501 65.3 15.16 58.175C12.543 52.593 12.495 52.105 12.186 28.25L11.871 4L128 4L244.129 4L243.814 28.25C243.505 52.105 243.457 52.593 240.84 58.175C237.499 65.3 231.491 71.882 225.288 75.209C222.655 76.621 209.925 80.777 197 84.444C184.075 88.111 170.463 92.005 166.75 93.098L160 95.085L160 107.196L160 119.308L163.927 122.669C173.765 131.091 183.709 148.544 186.452 162.208C188.426 172.037 188.49 196.026 186.566 205.099C184.24 216.073 179.5 224.481 170.422 233.734C163.758 240.527 160.869 242.657 153.922 245.9C141.436 251.729 128.769 253.353 115.513 250.825M141.344 242.04C157.805 237.83 170.649 226.113 177.015 209.5C178.971 204.396 179.383 201.084 179.773 187.319C180.323 167.911 178.938 160.104 172.754 147.748C167.616 137.483 155.463 124.745 146.837 120.583C130.005 112.461 112.066 115.524 97.689 128.972C89.228 136.887 82.909 146.366 79.314 156.538C76.607 164.198 76.5 165.221 76.5 183.5C76.5 201.026 76.685 203.004 78.881 209C84.98 225.654 97.904 237.707 114.259 241.992C123.657 244.455 131.845 244.469 141.344 242.04M128 108.571C138.112 108.571 140.254 108.885 145.75 111.169L152 113.768L152 101.426L152 89.085L158.75 87.101C162.463 86.01 176.75 81.907 190.5 77.984C204.25 74.06 217.3 70.055 219.5 69.083C225.39 66.481 229.754 62.391 232.799 56.62C235.428 51.636 235.509 50.976 235.825 31.75L236.15 12L128 12L19.85 12L20.175 31.75C20.491 50.976 20.572 51.636 23.201 56.62C26.246 62.391 30.61 66.481 36.5 69.083C38.7 70.055 51.75 74.06 65.5 77.984C79.25 81.907 93.537 86.01 97.25 87.101L104 89.085L104 101.426L104 113.768L110.25 111.169C115.746 108.885 117.888 108.571 128 108.571" />
    <glyph glyph-name="log-in-3"
      unicode="&#xEA3C;"
      horiz-adv-x="256" d="M108 248L108 244L168 244L228 244L228 128L228 12L168 12L108 12L108 8L108 4L172 4L236 4L236 128L236 252L172 252L108 252L108 248M132.967 186.465L130.585 183.929L156.535 157.965L182.486 132L103.243 132L24 132L24 128L24 124L103.243 124L182.486 124L156.508 98.008L130.53 72.016L133.275 69.27L136.021 66.525L166.756 97.26L197.492 127.996L167.002 158.498C150.233 175.274 136.25 189 135.93 189C135.61 189 134.277 187.859 132.967 186.465" />
    <glyph glyph-name="filter-tool-4"
      unicode="&#xEA3D;"
      horiz-adv-x="256" d="M4.315 238.993C1.481 237.851 -0.296 234.457 0.201 231.135C0.428 229.618 20.825 201.535 48.298 164.916L96 101.332L96 53.312L96 5.292L98.452 2.646L100.905 0L128 0L155.095 0L157.548 2.646L160 5.292L160 53.312L160 101.332L207.714 164.916C242.706 211.545 255.532 229.351 255.817 231.693C256.111 234.109 255.584 235.507 253.648 237.443L251.091 240L128.795 239.937C60.853 239.901 5.529 239.482 4.315 238.993M188.004 165.336L144 106.671L144 61.336L144 16L128 16L112 16L112 61.336L112 106.671L67.996 165.336L23.992 224L128 224L232.008 224L188.004 165.336" />
    <glyph glyph-name="gallery-layout-4"
      unicode="&#xEA3E;"
      horiz-adv-x="256" d="M18.455 237.545C16.022 235.113 16 234.924 16 216.191C16 197.516 16.029 197.261 18.452 194.646L20.905 192L40 192L59.095 192L61.548 194.646C63.971 197.261 64 197.516 64 216.191C64 241.673 65.686 240 40 240C21.064 240 20.889 239.98 18.455 237.545M82.455 237.545C80.022 235.113 80 234.924 80 216.191C80 197.516 80.029 197.261 82.452 194.646L84.905 192L104 192L123.095 192L125.548 194.646C127.971 197.261 128 197.516 128 216.191C128 241.673 129.686 240 104 240C85.064 240 84.889 239.98 82.455 237.545M146.455 237.545C144.022 235.113 144 234.924 144 216.191C144 197.516 144.029 197.261 146.452 194.646L148.905 192L168 192L187.095 192L189.548 194.646C191.971 197.261 192 197.516 192 216.191C192 241.673 193.686 240 168 240C149.064 240 148.889 239.98 146.455 237.545M210.455 237.545C208.022 235.113 208 234.924 208 216.191C208 197.516 208.029 197.261 210.452 194.646L212.905 192L232 192L251.095 192L253.548 194.646C255.971 197.261 256 197.516 256 216.191C256 241.673 257.686 240 232 240C213.064 240 212.889 239.98 210.455 237.545M48 216L48 208L40 208L32 208L32 216L32 224L40 224L48 224L48 216M112 216L112 208L104 208L96 208L96 216L96 224L104 224L112 224L112 216M176 216L176 208L168 208L160 208L160 216L160 224L168 224L176 224L176 216M240 216L240 208L232 208L224 208L224 216L224 224L232 224L240 224L240 216M18.455 173.545C16.022 171.113 16 170.924 16 152.191C16 133.516 16.029 133.261 18.452 130.646L20.905 128L40 128L59.095 128L61.548 130.646C63.971 133.261 64 133.516 64 152.191C64 177.673 65.686 176 40 176C21.064 176 20.889 175.98 18.455 173.545M82.455 173.545C80.022 171.113 80 170.924 80 152.191C80 133.516 80.029 133.261 82.452 130.646L84.905 128L104 128L123.095 128L125.548 130.646C127.971 133.261 128 133.516 128 152.191C128 177.673 129.686 176 104 176C85.064 176 84.889 175.98 82.455 173.545M146.455 173.545C144.022 171.113 144 170.924 144 152.191C144 133.516 144.029 133.261 146.452 130.646L148.905 128L168 128L187.095 128L189.548 130.646C191.971 133.261 192 133.516 192 152.191C192 177.673 193.686 176 168 176C149.064 176 148.889 175.98 146.455 173.545M210.455 173.545C208.022 171.113 208 170.924 208 152.191C208 133.516 208.029 133.261 210.452 130.646L212.905 128L232 128L251.095 128L253.548 130.646C255.971 133.261 256 133.516 256 152.191C256 177.673 257.686 176 232 176C213.064 176 212.889 175.98 210.455 173.545M48 152L48 144L40 144L32 144L32 152L32 160L40 160L48 160L48 152M112 152L112 144L104 144L96 144L96 152L96 160L104 160L112 160L112 152M176 152L176 144L168 144L160 144L160 152L160 160L168 160L176 160L176 152M240 152L240 144L232 144L224 144L224 152L224 160L232 160L240 160L240 152M18.455 109.545C16.022 107.113 16 106.924 16 88.191C16 69.516 16.029 69.261 18.452 66.646L20.905 64L40 64L59.095 64L61.548 66.646C63.971 69.261 64 69.516 64 88.191C64 113.673 65.686 112 40 112C21.064 112 20.889 111.98 18.455 109.545M82.455 109.545C80.022 107.113 80 106.924 80 88.191C80 69.516 80.029 69.261 82.452 66.646L84.905 64L104 64L123.095 64L125.548 66.646C127.971 69.261 128 69.516 128 88.191C128 113.673 129.686 112 104 112C85.064 112 84.889 111.98 82.455 109.545M146.455 109.545C144.022 107.113 144 106.924 144 88.191C144 69.516 144.029 69.261 146.452 66.646L148.905 64L168 64L187.095 64L189.548 66.646C191.971 69.261 192 69.516 192 88.191C192 113.673 193.686 112 168 112C149.064 112 148.889 111.98 146.455 109.545M210.455 109.545C208.022 107.113 208 106.924 208 88.191C208 69.516 208.029 69.261 210.452 66.646L212.905 64L232 64L251.095 64L253.548 66.646C255.971 69.261 256 69.516 256 88.191C256 113.673 257.686 112 232 112C213.064 112 212.889 111.98 210.455 109.545M48 88L48 80L40 80L32 80L32 88L32 96L40 96L48 96L48 88M112 88L112 80L104 80L96 80L96 88L96 96L104 96L112 96L112 88M176 88L176 80L168 80L160 80L160 88L160 96L168 96L176 96L176 88M240 88L240 80L232 80L224 80L224 88L224 96L232 96L240 96L240 88M18.455 45.545C16.022 43.113 16 42.924 16 24.191C16 5.516 16.029 5.261 18.452 2.646L20.905 0L40 0L59.095 0L61.548 2.646C63.971 5.261 64 5.516 64 24.191C64 49.673 65.686 48 40 48C21.064 48 20.889 47.98 18.455 45.545M82.455 45.545C80.022 43.113 80 42.924 80 24.191C80 5.516 80.029 5.261 82.452 2.646L84.905 0L104 0L123.095 0L125.548 2.646C127.971 5.261 128 5.516 128 24.191C128 49.673 129.686 48 104 48C85.064 48 84.889 47.98 82.455 45.545M146.455 45.545C144.022 43.113 144 42.924 144 24.191C144 5.516 144.029 5.261 146.452 2.646L148.905 0L168 0L187.095 0L189.548 2.646C191.971 5.261 192 5.516 192 24.191C192 49.673 193.686 48 168 48C149.064 48 148.889 47.98 146.455 45.545M210.455 45.545C208.022 43.113 208 42.924 208 24.191C208 5.516 208.029 5.261 210.452 2.646L212.905 0L232 0L251.095 0L253.548 2.646C255.971 5.261 256 5.516 256 24.191C256 49.673 257.686 48 232 48C213.064 48 212.889 47.98 210.455 45.545M48 24L48 16L40 16L32 16L32 24L32 32L40 32L48 32L48 24M112 24L112 16L104 16L96 16L96 24L96 32L104 32L112 32L112 24M176 24L176 16L168 16L160 16L160 24L160 32L168 32L176 32L176 24M240 24L240 16L232 16L224 16L224 24L224 32L232 32L240 32L240 24" />
    <glyph glyph-name="lab-4"
      unicode="&#xEA3F;"
      horiz-adv-x="256" d="M50.455 253.545L48 251.091L48 224.191L48 197.292L50.452 194.646L52.905 192L74.452 192L96 192L96 165.342L96 138.683L67.044 100.059C51.013 78.675 36.846 58.771 35.305 55.467C32.877 50.264 32.519 48.283 32.51 40C32.501 31.414 32.802 29.863 35.638 23.877C39.328 16.09 44.287 10.295 50.803 6.159C60.542 -0.024 60.235 0 128 0C195.765 0 195.458 -0.024 205.197 6.159C211.713 10.295 216.672 16.09 220.362 23.877C223.198 29.863 223.499 31.414 223.49 40C223.481 48.283 223.123 50.264 220.695 55.467C219.154 58.771 204.987 78.675 188.956 100.059L160 138.683L160 165.342L160 192L181.548 192L203.095 192L205.548 194.646L208 197.292L208 224.191L208 251.091L205.545 253.545L203.091 256L128 256L52.909 256L50.455 253.545M192 224L192 208L170.455 208C148.912 208 148.909 208 146.455 205.545L144 203.091L144 168.228L144 133.366L175.013 91.967C193.3 67.556 206.428 49.119 207.007 47.034C209.372 38.521 207.474 30.855 201.299 23.988C193.892 15.75 196.19 16 128 16C59.81 16 62.108 15.75 54.701 23.988C48.513 30.87 46.627 38.519 49.007 47.084C49.604 49.234 62.396 67.193 81.001 92.001L112 133.336L112 168.213L112 203.091L109.545 205.545C107.091 208 107.088 208 85.545 208L64 208L64 224L64 240L128 240L192 240L192 224" />
    <glyph glyph-name="presentation-6"
      unicode="&#xEA40;"
      horiz-adv-x="256" d="M40.734 254.97C31.404 252.627 23.095 245.89 18.812 237.193C16.946 233.404 16.5 230.862 16.5 224C16.5 213.879 18.692 208.466 25.579 201.579C36.752 190.406 53.733 188.939 66.421 198.051C87.042 212.86 83.331 243.659 59.744 253.47C54.969 255.456 45.609 256.195 40.734 254.97M146.455 253.545C144.09 251.181 144 250.594 144 237.545L144 224L130.455 224C117.406 224 116.819 223.91 114.455 221.545C111.266 218.357 111.265 214.085 114.452 210.646L116.905 208L178.452 208L240 208L240 144L240 80L178.455 80L116.909 80L114.455 77.545C111.266 74.357 111.265 70.085 114.452 66.646L116.905 64L139.935 64L162.965 64L178.422 33.188C194.271 1.594 195.351 0 200.911 0C203.507 0 208 4.845 208 7.644C208 8.947 201.923 22.161 194.496 37.007L180.993 64L216.044 64L251.095 64L253.548 66.646L256 69.292L256 144.191L256 219.091L253.545 221.545L251.091 224L205.545 224L160 224L160 237.545C160 250.594 159.91 251.181 157.545 253.545C154.298 256.793 149.702 256.793 146.455 253.545M54.655 238.359C64.696 233.595 66.921 221.206 59.194 213.084C52.718 206.276 43.282 206.276 36.806 213.084C24.598 225.916 38.724 245.919 54.655 238.359M16.008 174.684C10.952 173.074 2.438 164.401 1.102 159.5C0.36 156.778 0.009 131.502 0.006 80.396L0 5.292L2.452 2.646C5.744 -0.906 10.256 -0.906 13.548 2.646L16 5.292L16 80.191L16 155.091L18.455 157.545C20.909 160 20.912 160 42.455 160L64 160L64 82.646L64 5.292L66.452 2.646C68.086 0.883 69.937 0 72 0C74.063 0 75.914 0.883 77.548 2.646L80 5.292L80 82.646L80 160L117.548 160L155.095 160L157.548 162.646C160.735 166.085 160.734 170.357 157.545 173.545L155.091 176L87.295 175.898C40.571 175.828 18.415 175.45 16.008 174.684" />
    <glyph glyph-name="presentation-7"
      unicode="&#xEA41;"
      horiz-adv-x="256" d="M33.792 254.66C25.47 252.31 18.31 246.235 13.705 237.616C11.882 234.205 11.506 231.873 11.506 224C11.506 216.015 11.871 213.815 13.796 210.205C19.575 199.369 29.045 193.074 40.789 192.265C49.656 191.653 57.515 194.531 64.294 200.872C70.036 206.243 72.328 210.366 73.955 218.25C75.297 224.754 74.131 232.853 70.967 239C68.386 244.014 61.272 250.564 55.776 252.987C49.754 255.643 39.924 256.391 33.792 254.66M46.401 233.606C50.743 231.792 53 228.456 53 223.854C53 219.339 49.238 214.431 45.077 213.517C38.919 212.164 31.993 217.824 32.004 224.2C32.01 228.005 35.607 232.832 39.212 233.871C41.02 234.393 42.627 234.86 42.782 234.91C42.937 234.959 44.566 234.373 46.401 233.606M96 224L96 213L165.5 213L235 213L235 154.5L235 96L171 96L107 96L107 85.513L107 75.027L140.711 74.763L174.421 74.5L188.642 41.5C196.463 23.35 203.037 8.067 203.252 7.538C203.538 6.832 220.372 12.897 222.823 14.589C223 14.712 217.66 27.567 210.956 43.156C204.253 58.745 198.542 72.287 198.267 73.25C197.799 74.888 199.629 75 226.883 75L256 75L256 155L256 235L176 235L96 235L96 224M21.882 179.619C13.281 176.546 6.419 170.291 2.606 162.051C0.529 157.563 0.496 156.412 0.221 78.75L-0.058 0L10.471 0L21 0L21 75.032C21 157.244 20.865 155.327 26.872 158.434C29.274 159.676 33.43 160 46.95 160L64 160L64 80L64 0L74.5 0L85 0L85 80L85 160L128 160L171 160L171 170.5L171 181L98.25 180.956C41.388 180.922 24.71 180.63 21.882 179.619" />
    <glyph glyph-name="presentation-8"
      unicode="&#xEA42;"
      horiz-adv-x="256" d="M48.734 254.97C39.404 252.627 31.095 245.89 26.812 237.193C24.946 233.404 24.5 230.862 24.5 224C24.5 213.879 26.692 208.466 33.579 201.579C44.752 190.406 61.733 188.939 74.421 198.051C95.042 212.86 91.331 243.659 67.744 253.47C62.969 255.456 53.609 256.195 48.734 254.97M62.655 238.359C72.696 233.595 74.921 221.206 67.194 213.084C60.718 206.276 51.282 206.276 44.806 213.084C32.598 225.916 46.724 245.919 62.655 238.359M104 224L104 216L164 216L224 216L224 152L224 88L168 88L112 88L112 80L112 72L141.75 71.972L171.5 71.944L189.954 38.405C200.104 19.959 208.654 4.714 208.955 4.528C209.257 4.341 212.545 5.971 216.262 8.149L223.021 12.109L220.598 16.304C215.874 24.486 190 71.274 190 71.634C190 71.835 201.25 72 215 72L240 72L240 152L240 232L172 232L104 232L104 224M32.008 174.684C26.952 173.074 18.438 164.401 17.102 159.5C16.358 156.772 16.009 130.767 16.006 77.75L16 0L24 0L32 0L32 77.545L32 155.091L34.455 157.545C36.909 160 36.912 160 58.455 160L80 160L80 80L80 0L88 0L96 0L96 80L96 160L136 160L176 160L176 168L176 176L105.75 175.898C57.224 175.827 34.42 175.452 32.008 174.684" />
    <glyph glyph-name="presentation-9"
      unicode="&#xEA43;"
      horiz-adv-x="256" d="M47.903 249.911C35.815 248.067 25.759 238.744 22.473 226.333C18.488 211.281 27.247 194.432 41.92 188.921C49.465 186.087 60.479 186.521 67.183 189.916C77.804 195.294 84.293 205.254 84.831 217C85.286 226.925 82.732 233.91 76.234 240.516C68.526 248.35 58.807 251.573 47.903 249.911M133.667 250.333C133.3 249.967 133 245.017 133 239.333L133 229L120 229L107 229L107 224L107 219L120.75 218.913C128.313 218.865 157 218.752 184.5 218.663L234.5 218.5L234.757 154.75L235.015 91L171.007 91L107 91L107 85.5L107 80L139.764 80L172.527 80L187.367 45.25C195.528 26.137 202.562 10.12 202.997 9.656C203.432 9.192 205.832 9.717 208.331 10.822L212.874 12.832L198.577 46.166L184.28 79.5L214.64 79.764L245 80.029L245 154.514L245 229L194.5 229L144 229L144 240L144 251L139.167 251C136.508 251 134.033 250.7 133.667 250.333M61.5 238.121C69.728 234.347 74.143 227.533 74.142 218.611C74.142 212.074 72.962 209.071 68.421 204.044C58.024 192.536 39.116 196.656 33.378 211.68C30.074 220.332 33.833 231.345 41.812 236.381C48.236 240.436 55.126 241.045 61.5 238.121M30.939 169.639C23.787 167.704 19.82 164.871 15.5 158.61L11.5 152.814L11.225 78.907L10.95 5L15.95 5L20.949 5L21.224 76.75L21.5 148.5L23.701 152.038C24.911 153.984 27.672 156.572 29.837 157.788C33.544 159.872 34.967 160 54.386 160L75 160L75 82.5L75 5L80 5L85 5L85 82.5L85 160L128.052 160L171.105 160L170.802 165.25L170.5 170.5L103 170.686C52.118 170.826 34.377 170.568 30.939 169.639" />
    <glyph glyph-name="presentation-10"
      unicode="&#xEA44;"
      horiz-adv-x="256" d="M49.5 251.12C36.867 247.785 28 236.6 28 224C28 208.942 40.942 196 56 196C71.058 196 84 208.942 84 224C84 238.362 72.756 250.359 58.254 251.471C55.089 251.714 51.15 251.556 49.5 251.12M136 238L136 228L118 228L100 228L100 224L100 220L166 220L232 220L232 148L232 76L170 76L108 76L108 72L108 68L142.937 68L177.874 68L197.164 37.124L216.453 6.249L219.727 7.81C221.527 8.668 223 9.648 223 9.986C223 10.325 214.925 23.517 205.055 39.301L187.11 68L213.555 68L240 68L240 148L240 228L192 228L144 228L144 238L144 248L140 248L136 248L136 238M66.531 240.673C68.542 239.306 71.379 236.458 72.835 234.344C75.036 231.147 75.48 229.406 75.471 224C75.461 218.514 75.013 216.837 72.596 213.249C68.285 206.849 63.83 204.5 56 204.5C48.17 204.5 43.715 206.849 39.404 213.249C36.987 216.837 36.539 218.514 36.529 224C36.52 229.406 36.964 231.147 39.165 234.344C41.873 238.276 46.999 242.329 50.525 243.325C54.741 244.515 62.854 243.171 66.531 240.673M36.139 182.853C31.248 181.445 25.712 177.686 22.102 173.32C15.934 165.862 16 166.777 16 88.53L16 17.424L18.25 12.962C19.894 9.702 21.702 7.894 24.962 6.25C32.619 2.389 39.539 3.908 44.618 10.565L47.5 14.341L47.787 49.171L48.074 84L54.037 84L60 84L60 50.712C60 18.18 60.051 17.322 62.25 12.962C63.894 9.702 65.702 7.894 68.962 6.25C76.62 2.388 83.539 3.908 88.618 10.566L91.5 14.343L91.77 83.172C91.919 121.027 92.144 152.018 92.27 152.039C92.397 152.061 109.07 152.898 129.322 153.898C170.009 155.908 168.756 155.652 173.75 162.99C177.985 169.212 175.745 177.746 168.759 182.005C165.594 183.935 163.684 183.99 102.5 183.906C65.197 183.855 38.129 183.425 36.139 182.853M166 174C168.494 171.506 168.543 168.892 166.152 165.939C164.346 163.709 163.507 163.616 129.402 161.883C110.206 160.908 92.138 160.085 89.25 160.055L84 160L83.985 89.25C83.974 34.463 83.687 17.94 82.714 16.017C80.078 10.806 71.606 11.179 69.13 16.615C68.356 18.313 68 30.584 68 55.547L68 92L54 92L40 92L39.985 55.25C39.969 15.7 39.807 14.36 34.822 12.606C31.249 11.35 26.484 13.417 25.066 16.84C24.285 18.726 24.04 40.544 24.23 91.169L24.5 162.829L27.5 167.088C29.15 169.43 32.483 172.394 34.907 173.673L39.315 176L101.657 176C162.667 176 164.043 175.957 166 174" />
    <glyph glyph-name="saved-items-1"
      unicode="&#xEA45;"
      horiz-adv-x="256" d="M32.5 243.672C24.206 240.42 17.857 234.748 13.835 227L11.5 222.5L11.5 128L11.5 33.5L13.834 29C16.941 23.01 23.068 16.832 28.817 13.894L33.5 11.5L128 11.5L222.5 11.5L227.183 13.894C232.932 16.832 239.059 23.01 242.166 29L244.5 33.5L244.5 128L244.5 222.5L242.106 227.183C239.168 232.932 232.99 239.059 227 242.166C223.394 244.036 220.562 244.568 212.75 244.844L203 245.187L203 234.703L203 224.219L210.604 223.835C217.709 223.476 218.399 223.237 221.12 220.192L224.032 216.933L223.766 127.384L223.5 37.836L220.234 34.918L216.968 32L128 32L39.032 32L35.766 34.918L32.5 37.836L32.234 127.384L31.968 216.933L34.88 220.192C37.601 223.237 38.291 223.476 45.396 223.835L53 224.219L53 234.609L53 245L44.25 244.924C39.438 244.882 34.15 244.319 32.5 243.672M75 175.985L75 106.971L100.98 126.485C115.27 137.218 127.428 146 128 146C128.572 146 140.73 137.218 155.02 126.485L181 106.971L181 175.985L181 245L128 245L75 245L75 175.985M160 187C160 166.65 159.768 150 159.485 150C159.201 150 152.001 155.23 143.485 161.623L128 173.246L112.515 161.623C103.999 155.23 96.799 150 96.515 150C96.232 150 96 166.65 96 187L96 224L128 224L160 224L160 187" />
    <glyph glyph-name="saved-items-2"
      unicode="&#xEA46;"
      horiz-adv-x="256" d="M30.296 246.552C20.421 243.466 11.127 233.384 9.014 223.469C8.301 220.122 8.045 188.144 8.228 125.478L8.5 32.457L11.834 25.685C14.231 20.816 16.573 17.803 20.17 14.96C29.446 7.628 24.538 7.928 130.075 8.23C224.296 8.499 224.51 8.505 229.149 10.649C235.384 13.532 241.627 19.973 244.852 26.852L247.5 32.5L247.5 128.5L247.5 224.5L245.151 229.27C242.146 235.373 235.36 242.155 229.27 245.142C225.238 247.119 222.604 247.538 212.25 247.844L200 248.206L200 240.191L200 232.177L210.832 231.838C220.785 231.527 221.949 231.282 225.191 228.806C232.419 223.287 232 229.488 232 128.067C232 27.249 232.353 32.659 225.434 27.382L221.656 24.5L128 24.5L34.344 24.5L30.566 27.382C23.647 32.659 24 27.249 24 128.067C24 229.488 23.581 223.287 30.809 228.806C34.051 231.282 35.215 231.527 45.168 231.838L56 232.177L56 240.088L56 248L45.25 247.933C39.337 247.896 32.608 247.275 30.296 246.552M72 171.505L72 95.01L99.722 118.005C114.97 130.652 127.702 141 128.016 141C128.331 141 136.218 134.642 145.544 126.871C154.87 119.1 167.338 108.737 173.25 103.841L184 94.94L184 171.47L184 248L128 248L72 248L72 171.505M168 181C168 152.95 167.765 130 167.477 130C167.189 130 158.327 137.2 147.783 146C137.24 154.8 128.337 162 128 162C127.663 162 118.76 154.8 108.217 146C97.673 137.2 88.811 130 88.523 130C88.235 130 88 152.95 88 181L88 232L128 232L168 232L168 181" />
    <glyph glyph-name="saved-items-3"
      unicode="&#xEA47;"
      horiz-adv-x="256" d="M34.453 238.674C29.301 236.689 24.343 233.138 21.478 229.383C15.884 222.048 16 224.218 16 127.001L16 37.319L19.06 31.196C22.45 24.413 27.493 19.796 34.035 17.488C40.366 15.254 215.634 15.254 221.965 17.488C228.507 19.796 233.55 24.413 236.94 31.196L240 37.319L240 126.978C240 227.95 240.316 223.411 232.733 231.198C225.662 238.459 222.614 239.452 206.25 239.824L192 240.148L192 234.574L192 229L204.75 228.984C216.099 228.969 217.939 228.72 221.5 226.718C229.483 222.231 228.997 228.618 228.998 128.21C229 40.304 228.968 38.858 226.96 34.921C225.837 32.721 223.475 30.041 221.71 28.965C218.586 27.06 216.073 27.007 127.898 27.004L37.296 27L33.999 29.25C32.187 30.488 29.87 33.068 28.852 34.984C27.089 38.301 27 42.78 27.002 127.984C27.003 228.646 26.516 222.23 34.5 226.718C38.061 228.72 39.901 228.969 51.25 228.984L64 229L64 234.5L64 240L50.75 239.924C43.199 239.881 36.19 239.343 34.453 238.674M80 179C80 145.45 80.23 118 80.51 118C80.791 118 91.591 125.931 104.51 135.624L128 153.247L151.49 135.624C164.409 125.931 175.209 118 175.49 118C175.77 118 176 145.45 176 179L176 240L128 240L80 240L80 179M165 183.979L165 138.958L147.028 152.479C137.143 159.916 128.581 166 128 166C127.419 166 118.857 159.916 108.972 152.479L91 138.958L91 183.979L91 229L128 229L165 229L165 183.979" />
    <glyph glyph-name="saved-items-4"
      unicode="&#xEA48;"
      horiz-adv-x="256" d="M32.008 238.684C26.952 237.074 18.438 228.401 17.102 223.5C15.466 217.501 15.573 38.176 17.216 32.616C18.839 27.123 27.123 18.839 32.616 17.216C38.546 15.464 217.454 15.464 223.384 17.216C228.877 18.839 237.161 27.123 238.784 32.616C240.427 38.176 240.534 217.501 238.898 223.5C237.463 228.762 228.998 237.095 223.384 238.771C221.12 239.447 214.033 240 207.634 240L196 240L196 236.079L196 232.159L208.832 231.829C220.977 231.518 221.853 231.356 225.191 228.806C232.419 223.287 232 229.487 232 128.067C232 27.249 232.353 32.659 225.434 27.382L221.656 24.5L128 24.5L34.344 24.5L30.566 27.382C23.647 32.659 24 27.249 24 128.067C24 229.487 23.581 223.287 30.809 228.806C34.147 231.356 35.023 231.518 47.168 231.829L60 232.159L60 236.079L60 240L47.75 239.898C41.013 239.842 33.928 239.295 32.008 238.684M76 169.878C76 103.347 76.089 99.825 77.743 101.128C78.701 101.882 90.162 111.387 103.211 122.25C116.26 133.112 127.415 142 128 142C128.585 142 139.74 133.112 152.789 122.25C165.838 111.387 177.299 101.882 178.257 101.128C179.911 99.825 180 103.347 180 169.878L180 240L128 240L76 240L76 169.878M172 174.378C172 119.773 171.909 116.827 170.261 118.128C169.304 118.882 159.404 127.08 148.261 136.343L128 153.187L107.739 136.343C96.596 127.08 86.696 118.882 85.739 118.128C84.091 116.827 84 119.773 84 174.378L84 232L128 232L172 232L172 174.378" />
    <glyph glyph-name="fav-list-1"
      unicode="&#xEA49;"
      horiz-adv-x="256" d="M107.595 212.19L87.71 172.38L47.105 166.561C24.772 163.36 5.037 160.516 3.25 160.24C1.462 159.964 0 159.187 0 158.514C0 157.841 2.587 154.873 5.75 151.919C8.912 148.965 23.134 135.21 37.353 121.352L63.206 96.156L55.617 51.897C51.444 27.554 48.135 7.549 48.265 7.442C48.463 7.277 120.12 44.796 120.699 45.368C121.136 45.8 111.451 63.987 110.782 63.993C110.386 63.997 102.861 60.175 94.058 55.5C85.255 50.825 77.678 47 77.221 47C76.763 47 78.59 59.713 81.281 75.25L86.173 103.5L65.432 123.762C54.024 134.906 44.873 144.206 45.096 144.429C45.319 144.652 56.976 146.46 71 148.447C85.025 150.434 97.759 152.312 99.297 152.62C101.819 153.124 103.348 155.688 114.788 178.59C121.77 192.565 127.715 204 128 204C128.285 204 134.23 192.565 141.212 178.59C152.652 155.688 154.181 153.124 156.703 152.62C158.241 152.312 170.975 150.434 185 148.447C199.024 146.46 210.714 144.619 210.977 144.357C211.239 144.094 206.064 138.766 199.477 132.517L187.5 121.154L195.043 113.542L202.586 105.93L229.043 131.543C243.594 145.63 255.634 157.733 255.797 158.439C255.976 159.215 254.789 159.925 252.797 160.232C250.984 160.512 231.228 163.36 208.895 166.561L168.29 172.38L148.405 212.19C137.468 234.086 128.286 252 128 252C127.714 252 118.532 234.086 107.595 212.19M139 74.5L139 64L197.5 64L256 64L256 74.5L256 85L197.5 85L139 85L139 74.5M139 21.5L139 11L197.5 11L256 11L256 21.5L256 32L197.5 32L139 32L139 21.5" />
    <glyph glyph-name="fav-list-2"
      unicode="&#xEA4A;"
      horiz-adv-x="256" d="M107.5 211.249L87.5 171.5L44.179 165.346C20.352 161.961 0.563 158.896 0.203 158.536C-0.157 158.176 4.487 153.077 10.524 147.204C16.561 141.332 30.906 127.296 42.402 116.014L63.303 95.5L55.781 51.5C51.644 27.3 48.344 7.394 48.449 7.264C48.553 7.134 67.16 16.763 89.798 28.66L130.957 50.292L127.229 57.139C125.178 60.905 123.251 63.99 122.947 63.993C122.642 63.997 110.798 57.881 96.627 50.403C82.456 42.924 70.601 37.066 70.283 37.384C69.965 37.702 72.021 51.396 74.852 67.815C77.684 84.234 80 98.585 80 99.706C80 101.043 72.053 109.555 56.904 124.443C44.202 136.928 33.964 147.273 34.154 147.433C34.344 147.593 47.55 149.609 63.5 151.911C79.45 154.214 93.873 156.334 95.551 156.623C98.435 157.119 99.389 158.726 113.037 186.074C120.976 201.983 127.71 215 128 215C128.29 215 135.024 201.983 142.963 186.074C156.611 158.726 157.565 157.119 160.449 156.623C162.127 156.334 176.55 154.214 192.5 151.911C208.45 149.609 221.64 147.609 221.812 147.467C221.983 147.326 214.108 139.31 204.312 129.654L186.5 112.099L192.129 106.431L197.757 100.764L220.129 122.51C254.72 156.133 256.45 157.883 255.775 158.558C255.427 158.906 235.648 161.961 211.821 165.346L168.5 171.5L148.5 211.249C137.5 233.111 128.275 250.998 128 250.998C127.725 250.998 118.5 233.111 107.5 211.249M144 80L144 72L196 72L248 72L248 80L248 88L196 88L144 88L144 80M144 32L144 24L196 24L248 24L248 32L248 40L196 40L144 40L144 32" />
    <glyph glyph-name="fav-list-3"
      unicode="&#xEA4B;"
      horiz-adv-x="256" d="M109.367 203.75L91.246 167.5L53.873 162.145C33.318 159.2 15.006 156.497 13.179 156.138L9.858 155.485L18.179 147.515C22.756 143.132 36.052 130.193 47.727 118.763L68.954 97.98L62.023 57.777C58.211 35.665 55.199 17.468 55.329 17.338C55.458 17.208 72.296 25.904 92.746 36.661L129.928 56.22L127.978 60.042C126.906 62.144 125.583 64.14 125.038 64.476C124.493 64.813 112.012 58.769 97.301 51.044C82.59 43.32 70.274 37 69.932 37C69.591 37 71.785 51.537 74.809 69.304L80.306 101.607L57.153 124.457C44.419 137.024 34 147.586 34 147.927C34 148.269 47.838 150.483 64.75 152.848C81.662 155.213 96.179 157.335 97.009 157.565C97.839 157.794 105.033 171.036 112.996 186.991C120.958 202.946 127.71 216 128 216C128.29 216 135.042 202.946 143.004 186.991C150.967 171.036 158.161 157.796 158.991 157.568C159.821 157.341 174.225 155.246 191 152.914C207.775 150.582 221.703 148.506 221.952 148.302C222.2 148.097 216.237 141.752 208.7 134.2L194.996 120.47L198.656 116.811L202.315 113.151L224.174 134.326L246.033 155.5L242.766 156.145C240.97 156.5 222.682 159.2 202.127 162.145L164.754 167.5L146.633 203.75C136.667 223.687 128.282 240 128 240C127.718 240 119.333 223.687 109.367 203.75M149 90.5L149 85L197 85L245 85L245 90.5L245 96L197 96L149 96L149 90.5M149 58.5L149 53L197 53L245 53L245 58.5L245 64L197 64L149 64L149 58.5M149 26.5L149 21L197 21L245 21L245 26.5L245 32L197 32L149 32L149 26.5" />
    <glyph glyph-name="fav-list-4"
      unicode="&#xEA4C;"
      horiz-adv-x="256" d="M109.429 204.191L91.357 167.415L50.659 161.517C28.275 158.273 10.082 155.355 10.23 155.032C10.379 154.71 23.55 141.711 39.5 126.147C56.968 109.102 68.429 97.183 68.321 96.174C68.223 95.254 65.145 77.027 61.482 55.672C57.819 34.317 54.975 16.725 55.161 16.578C55.532 16.288 125.487 53.153 126.515 54.181C127.681 55.348 123.954 61.196 122.42 60.608C121.625 60.303 108.537 53.51 93.335 45.512C78.133 37.514 65.62 31.09 65.528 31.235C65.435 31.381 68.044 47.024 71.326 65.997L77.292 100.494L51.896 125.224C37.928 138.825 26.787 149.964 27.138 149.977C27.488 149.99 43.132 152.25 61.901 155C80.67 157.75 96.139 160 96.276 160C96.413 160 103.489 173.95 112 191C120.511 208.05 127.711 222 128 222C128.289 222 135.489 208.05 144 191C152.511 173.95 159.587 160 159.724 160C161.236 160 228.448 149.885 228.716 149.617C228.916 149.417 222.312 142.827 214.04 134.972C205.768 127.117 199.002 120.422 199.005 120.095C199.008 119.768 200.071 118.174 201.367 116.554L203.725 113.607L224.612 134.054C236.101 145.299 245.621 154.752 245.77 155.059C245.918 155.367 227.725 158.273 205.341 161.517L164.643 167.415L146.571 204.191C136.632 224.418 128.275 240.967 128 240.967C127.725 240.967 119.368 224.418 109.429 204.191M148 92L148 88L198 88L248 88L248 92L248 96L198 96L148 96L148 92M148 60L148 56L198 56L248 56L248 60L248 64L198 64L148 64L148 60M148 28L148 24L198 24L248 24L248 28L248 32L198 32L148 32L148 28" />
    </font>
</defs>
</svg>
